<mxfile host="app.diagrams.net" agent="Mozilla/5.0 (Macintosh; Intel Mac OS X 10_15_7) AppleWebKit/605.1.15 (KHTML, like Gecko) Version/17.6 Safari/605.1.15" version="26.2.1" pages="2">
  <diagram id="C5RBs43oDa-KdzZeNtuy" name="Objects-Events">
    <mxGraphModel dx="1664" dy="1135" grid="1" gridSize="10" guides="1" tooltips="1" connect="1" arrows="1" fold="1" page="1" pageScale="1" pageWidth="1169" pageHeight="827" math="0" shadow="0">
      <root>
        <mxCell id="WIyWlLk6GJQsqaUBKTNV-0" />
        <mxCell id="WIyWlLk6GJQsqaUBKTNV-1" parent="WIyWlLk6GJQsqaUBKTNV-0" />
        <mxCell id="EX9fc1gSBjGgu7xqyz9W-34" style="edgeStyle=orthogonalEdgeStyle;rounded=0;orthogonalLoop=1;jettySize=auto;html=1;endArrow=none;startFill=0;" parent="WIyWlLk6GJQsqaUBKTNV-1" source="zkfFHV4jXpPFQw0GAbJ--0" target="zkfFHV4jXpPFQw0GAbJ--17" edge="1">
          <mxGeometry relative="1" as="geometry">
            <Array as="points">
              <mxPoint x="550" y="190" />
              <mxPoint x="550" y="190" />
            </Array>
          </mxGeometry>
        </mxCell>
        <mxCell id="EX9fc1gSBjGgu7xqyz9W-35" value="1" style="edgeLabel;html=1;align=left;verticalAlign=middle;resizable=0;points=[];" parent="EX9fc1gSBjGgu7xqyz9W-34" vertex="1" connectable="0">
          <mxGeometry x="-1" relative="1" as="geometry">
            <mxPoint as="offset" />
          </mxGeometry>
        </mxCell>
        <mxCell id="EX9fc1gSBjGgu7xqyz9W-36" value="aggregates" style="edgeLabel;html=1;align=right;verticalAlign=middle;resizable=0;points=[];" parent="EX9fc1gSBjGgu7xqyz9W-34" vertex="1" connectable="0">
          <mxGeometry x="0.8" relative="1" as="geometry">
            <mxPoint as="offset" />
          </mxGeometry>
        </mxCell>
        <mxCell id="EX9fc1gSBjGgu7xqyz9W-37" value="1..*" style="edgeLabel;html=1;align=right;verticalAlign=middle;resizable=0;points=[];" parent="EX9fc1gSBjGgu7xqyz9W-34" vertex="1" connectable="0">
          <mxGeometry x="1" relative="1" as="geometry">
            <mxPoint as="offset" />
          </mxGeometry>
        </mxCell>
        <mxCell id="zkfFHV4jXpPFQw0GAbJ--0" value="Commit" style="swimlane;fontStyle=2;align=center;verticalAlign=top;childLayout=stackLayout;horizontal=1;startSize=26;horizontalStack=0;resizeParent=1;resizeLast=0;collapsible=1;marginBottom=0;rounded=1;shadow=0;strokeWidth=1;arcSize=29;fillColor=#fff2cc;strokeColor=#d6b656;" parent="WIyWlLk6GJQsqaUBKTNV-1" vertex="1">
          <mxGeometry x="200" y="120" width="160" height="140" as="geometry">
            <mxRectangle x="200" y="240" width="160" height="26" as="alternateBounds" />
          </mxGeometry>
        </mxCell>
        <mxCell id="zkfFHV4jXpPFQw0GAbJ--1" value="id: commit_sha" style="text;align=left;verticalAlign=top;spacingLeft=4;spacingRight=4;overflow=hidden;rotatable=0;points=[[0,0.5],[1,0.5]];portConstraint=eastwest;fontStyle=4;rounded=1;" parent="zkfFHV4jXpPFQw0GAbJ--0" vertex="1">
          <mxGeometry y="26" width="160" height="26" as="geometry" />
        </mxCell>
        <mxCell id="zkfFHV4jXpPFQw0GAbJ--2" value="message: string" style="text;align=left;verticalAlign=top;spacingLeft=4;spacingRight=4;overflow=hidden;rotatable=0;points=[[0,0.5],[1,0.5]];portConstraint=eastwest;rounded=1;shadow=0;html=0;" parent="zkfFHV4jXpPFQw0GAbJ--0" vertex="1">
          <mxGeometry y="52" width="160" height="26" as="geometry" />
        </mxCell>
        <mxCell id="zkfFHV4jXpPFQw0GAbJ--3" value="description?: string" style="text;align=left;verticalAlign=top;spacingLeft=4;spacingRight=4;overflow=hidden;rotatable=0;points=[[0,0.5],[1,0.5]];portConstraint=eastwest;rounded=1;shadow=0;html=0;" parent="zkfFHV4jXpPFQw0GAbJ--0" vertex="1">
          <mxGeometry y="78" width="160" height="26" as="geometry" />
        </mxCell>
        <mxCell id="zkfFHV4jXpPFQw0GAbJ--5" value="to: repository" style="text;align=left;verticalAlign=top;spacingLeft=4;spacingRight=4;overflow=hidden;rotatable=0;points=[[0,0.5],[1,0.5]];portConstraint=eastwest;rounded=1;" parent="zkfFHV4jXpPFQw0GAbJ--0" vertex="1">
          <mxGeometry y="104" width="160" height="26" as="geometry" />
        </mxCell>
        <mxCell id="EX9fc1gSBjGgu7xqyz9W-38" style="edgeStyle=orthogonalEdgeStyle;rounded=0;orthogonalLoop=1;jettySize=auto;html=1;endArrow=none;startFill=0;elbow=vertical;" parent="WIyWlLk6GJQsqaUBKTNV-1" source="zkfFHV4jXpPFQw0GAbJ--6" target="zkfFHV4jXpPFQw0GAbJ--17" edge="1">
          <mxGeometry relative="1" as="geometry">
            <mxPoint x="323.0500000000002" y="439.15" as="sourcePoint" />
            <mxPoint x="570" y="150" as="targetPoint" />
          </mxGeometry>
        </mxCell>
        <mxCell id="EX9fc1gSBjGgu7xqyz9W-39" value="aggregates" style="edgeLabel;html=1;align=center;verticalAlign=middle;resizable=0;points=[];" parent="EX9fc1gSBjGgu7xqyz9W-38" vertex="1" connectable="0">
          <mxGeometry x="0.638" relative="1" as="geometry">
            <mxPoint x="17" as="offset" />
          </mxGeometry>
        </mxCell>
        <mxCell id="EX9fc1gSBjGgu7xqyz9W-40" value="1..*" style="edgeLabel;html=1;align=right;verticalAlign=middle;resizable=0;points=[];" parent="EX9fc1gSBjGgu7xqyz9W-38" vertex="1" connectable="0">
          <mxGeometry x="1" relative="1" as="geometry">
            <mxPoint as="offset" />
          </mxGeometry>
        </mxCell>
        <mxCell id="EX9fc1gSBjGgu7xqyz9W-41" value="0..*" style="edgeLabel;html=1;align=left;verticalAlign=middle;resizable=0;points=[];" parent="EX9fc1gSBjGgu7xqyz9W-38" vertex="1" connectable="0">
          <mxGeometry x="-1" relative="1" as="geometry">
            <mxPoint x="2" as="offset" />
          </mxGeometry>
        </mxCell>
        <mxCell id="EX9fc1gSBjGgu7xqyz9W-42" style="edgeStyle=orthogonalEdgeStyle;rounded=0;orthogonalLoop=1;jettySize=auto;html=1;endArrow=none;startFill=0;elbow=vertical;" parent="WIyWlLk6GJQsqaUBKTNV-1" source="zkfFHV4jXpPFQw0GAbJ--6" target="zkfFHV4jXpPFQw0GAbJ--0" edge="1">
          <mxGeometry relative="1" as="geometry">
            <Array as="points">
              <mxPoint x="270" y="330" />
              <mxPoint x="270" y="330" />
            </Array>
          </mxGeometry>
        </mxCell>
        <mxCell id="EX9fc1gSBjGgu7xqyz9W-74" value="formalises" style="edgeLabel;html=1;align=right;verticalAlign=middle;resizable=0;points=[];" parent="EX9fc1gSBjGgu7xqyz9W-42" vertex="1" connectable="0">
          <mxGeometry x="0.65" y="5" relative="1" as="geometry">
            <mxPoint as="offset" />
          </mxGeometry>
        </mxCell>
        <mxCell id="EX9fc1gSBjGgu7xqyz9W-75" value="1..*" style="edgeLabel;html=1;align=right;verticalAlign=bottom;resizable=0;points=[];labelPosition=center;verticalLabelPosition=top;" parent="EX9fc1gSBjGgu7xqyz9W-42" vertex="1" connectable="0">
          <mxGeometry x="-1" y="5" relative="1" as="geometry">
            <mxPoint as="offset" />
          </mxGeometry>
        </mxCell>
        <mxCell id="EX9fc1gSBjGgu7xqyz9W-76" value="1..*" style="edgeLabel;html=1;align=right;verticalAlign=top;resizable=0;points=[];labelPosition=center;verticalLabelPosition=top;" parent="EX9fc1gSBjGgu7xqyz9W-42" vertex="1" connectable="0">
          <mxGeometry x="1" y="5" relative="1" as="geometry">
            <mxPoint as="offset" />
          </mxGeometry>
        </mxCell>
        <mxCell id="EX9fc1gSBjGgu7xqyz9W-61" style="edgeStyle=orthogonalEdgeStyle;rounded=0;orthogonalLoop=1;jettySize=auto;html=1;endArrow=none;startFill=0;" parent="WIyWlLk6GJQsqaUBKTNV-1" source="zkfFHV4jXpPFQw0GAbJ--6" target="zkfFHV4jXpPFQw0GAbJ--13" edge="1">
          <mxGeometry relative="1" as="geometry">
            <Array as="points">
              <mxPoint x="330" y="580" />
              <mxPoint x="330" y="580" />
            </Array>
          </mxGeometry>
        </mxCell>
        <mxCell id="EX9fc1gSBjGgu7xqyz9W-62" value="0..*" style="edgeLabel;html=1;align=center;verticalAlign=middle;resizable=0;points=[];" parent="EX9fc1gSBjGgu7xqyz9W-61" vertex="1" connectable="0">
          <mxGeometry x="-0.8" relative="1" as="geometry">
            <mxPoint as="offset" />
          </mxGeometry>
        </mxCell>
        <mxCell id="EX9fc1gSBjGgu7xqyz9W-63" value="is-reviewed-by" style="edgeLabel;html=1;align=left;verticalAlign=middle;resizable=0;points=[];" parent="EX9fc1gSBjGgu7xqyz9W-61" vertex="1" connectable="0">
          <mxGeometry x="0.6" y="-1" relative="1" as="geometry">
            <mxPoint x="5" as="offset" />
          </mxGeometry>
        </mxCell>
        <mxCell id="EX9fc1gSBjGgu7xqyz9W-64" value="0..*" style="edgeLabel;html=1;align=left;verticalAlign=middle;resizable=0;points=[];" parent="EX9fc1gSBjGgu7xqyz9W-61" vertex="1" connectable="0">
          <mxGeometry x="0.8" relative="1" as="geometry">
            <mxPoint x="5" as="offset" />
          </mxGeometry>
        </mxCell>
        <mxCell id="EX9fc1gSBjGgu7xqyz9W-65" style="edgeStyle=orthogonalEdgeStyle;rounded=0;orthogonalLoop=1;jettySize=auto;html=1;endArrow=none;startFill=0;" parent="WIyWlLk6GJQsqaUBKTNV-1" source="zkfFHV4jXpPFQw0GAbJ--6" target="zkfFHV4jXpPFQw0GAbJ--13" edge="1">
          <mxGeometry relative="1" as="geometry">
            <Array as="points">
              <mxPoint x="230" y="580" />
              <mxPoint x="230" y="580" />
            </Array>
          </mxGeometry>
        </mxCell>
        <mxCell id="EX9fc1gSBjGgu7xqyz9W-66" value="0..*" style="edgeLabel;html=1;align=center;verticalAlign=middle;resizable=0;points=[];" parent="EX9fc1gSBjGgu7xqyz9W-65" vertex="1" connectable="0">
          <mxGeometry x="-0.8" relative="1" as="geometry">
            <mxPoint as="offset" />
          </mxGeometry>
        </mxCell>
        <mxCell id="EX9fc1gSBjGgu7xqyz9W-67" value="is-authored-by" style="edgeLabel;html=1;align=right;verticalAlign=middle;resizable=0;points=[];" parent="EX9fc1gSBjGgu7xqyz9W-65" vertex="1" connectable="0">
          <mxGeometry x="0.6" y="-5" relative="1" as="geometry">
            <mxPoint as="offset" />
          </mxGeometry>
        </mxCell>
        <mxCell id="EX9fc1gSBjGgu7xqyz9W-68" value="1..*" style="edgeLabel;html=1;align=right;verticalAlign=middle;resizable=0;points=[];" parent="EX9fc1gSBjGgu7xqyz9W-65" vertex="1" connectable="0">
          <mxGeometry x="0.8" y="-5" relative="1" as="geometry">
            <mxPoint as="offset" />
          </mxGeometry>
        </mxCell>
        <mxCell id="EX9fc1gSBjGgu7xqyz9W-77" style="edgeStyle=orthogonalEdgeStyle;rounded=0;orthogonalLoop=1;jettySize=auto;html=1;endArrow=none;startFill=0;endFill=0;" parent="WIyWlLk6GJQsqaUBKTNV-1" source="zkfFHV4jXpPFQw0GAbJ--6" target="zkfFHV4jXpPFQw0GAbJ--0" edge="1">
          <mxGeometry relative="1" as="geometry">
            <Array as="points">
              <mxPoint x="290" y="330" />
              <mxPoint x="290" y="330" />
            </Array>
          </mxGeometry>
        </mxCell>
        <mxCell id="EX9fc1gSBjGgu7xqyz9W-78" value="is-merged-with" style="edgeLabel;html=1;align=left;verticalAlign=middle;resizable=0;points=[];fontStyle=2" parent="EX9fc1gSBjGgu7xqyz9W-77" vertex="1" connectable="0">
          <mxGeometry x="0.65" y="-5" relative="1" as="geometry">
            <mxPoint as="offset" />
          </mxGeometry>
        </mxCell>
        <mxCell id="EX9fc1gSBjGgu7xqyz9W-80" value="1" style="edgeLabel;html=1;align=left;verticalAlign=top;resizable=0;points=[];" parent="EX9fc1gSBjGgu7xqyz9W-77" vertex="1" connectable="0">
          <mxGeometry x="1" y="-5" relative="1" as="geometry">
            <mxPoint as="offset" />
          </mxGeometry>
        </mxCell>
        <mxCell id="EX9fc1gSBjGgu7xqyz9W-82" value="0..1" style="edgeLabel;html=1;align=left;verticalAlign=bottom;resizable=0;points=[];" parent="EX9fc1gSBjGgu7xqyz9W-77" vertex="1" connectable="0">
          <mxGeometry x="-1" y="-5" relative="1" as="geometry">
            <mxPoint as="offset" />
          </mxGeometry>
        </mxCell>
        <mxCell id="2-shO3m1eGULjjPYNkJ5-6" value="" style="edgeStyle=orthogonalEdgeStyle;rounded=0;orthogonalLoop=1;jettySize=auto;html=1;fontSize=12;endArrow=none;startFill=0;" edge="1" parent="WIyWlLk6GJQsqaUBKTNV-1" source="zkfFHV4jXpPFQw0GAbJ--6" target="2-shO3m1eGULjjPYNkJ5-1">
          <mxGeometry relative="1" as="geometry">
            <Array as="points">
              <mxPoint x="460" y="490" />
            </Array>
          </mxGeometry>
        </mxCell>
        <mxCell id="2-shO3m1eGULjjPYNkJ5-7" value="has" style="edgeLabel;html=1;align=center;verticalAlign=middle;resizable=0;points=[];fontSize=12;" vertex="1" connectable="0" parent="2-shO3m1eGULjjPYNkJ5-6">
          <mxGeometry x="0.67" relative="1" as="geometry">
            <mxPoint as="offset" />
          </mxGeometry>
        </mxCell>
        <mxCell id="cFPhVOMwrruSEyY2H_j8-0" value="0..*" style="edgeLabel;html=1;align=center;verticalAlign=bottom;resizable=0;points=[];fontSize=12;" vertex="1" connectable="0" parent="2-shO3m1eGULjjPYNkJ5-6">
          <mxGeometry x="1" relative="1" as="geometry">
            <mxPoint x="2" as="offset" />
          </mxGeometry>
        </mxCell>
        <mxCell id="cFPhVOMwrruSEyY2H_j8-2" value="0..*" style="edgeLabel;html=1;align=left;verticalAlign=middle;resizable=0;points=[];fontSize=12;" vertex="1" connectable="0" parent="2-shO3m1eGULjjPYNkJ5-6">
          <mxGeometry x="-1" relative="1" as="geometry">
            <mxPoint x="2" as="offset" />
          </mxGeometry>
        </mxCell>
        <mxCell id="zkfFHV4jXpPFQw0GAbJ--6" value="Pull Request" style="swimlane;fontStyle=0;align=center;verticalAlign=top;childLayout=stackLayout;horizontal=1;startSize=26;horizontalStack=0;resizeParent=1;resizeLast=0;collapsible=1;marginBottom=0;rounded=1;shadow=0;strokeWidth=1;fillColor=#d5e8d4;strokeColor=#82b366;" parent="WIyWlLk6GJQsqaUBKTNV-1" vertex="1">
          <mxGeometry x="200" y="400" width="160" height="130" as="geometry">
            <mxRectangle x="200" y="40" width="160" height="26" as="alternateBounds" />
          </mxGeometry>
        </mxCell>
        <mxCell id="zkfFHV4jXpPFQw0GAbJ--7" value="id: number" style="text;align=left;verticalAlign=top;spacingLeft=4;spacingRight=4;overflow=hidden;rotatable=0;points=[[0,0.5],[1,0.5]];portConstraint=eastwest;fontStyle=4;rounded=1;" parent="zkfFHV4jXpPFQw0GAbJ--6" vertex="1">
          <mxGeometry y="26" width="160" height="26" as="geometry" />
        </mxCell>
        <mxCell id="zkfFHV4jXpPFQw0GAbJ--8" value="title: string" style="text;align=left;verticalAlign=top;spacingLeft=4;spacingRight=4;overflow=hidden;rotatable=0;points=[[0,0.5],[1,0.5]];portConstraint=eastwest;rounded=1;shadow=0;html=0;" parent="zkfFHV4jXpPFQw0GAbJ--6" vertex="1">
          <mxGeometry y="52" width="160" height="26" as="geometry" />
        </mxCell>
        <mxCell id="zkfFHV4jXpPFQw0GAbJ--10" value="state: string&#xa;" style="text;align=left;verticalAlign=top;spacingLeft=4;spacingRight=4;overflow=hidden;rotatable=0;points=[[0,0.5],[1,0.5]];portConstraint=eastwest;fontStyle=0;rounded=1;" parent="zkfFHV4jXpPFQw0GAbJ--6" vertex="1">
          <mxGeometry y="78" width="160" height="26" as="geometry" />
        </mxCell>
        <mxCell id="zkfFHV4jXpPFQw0GAbJ--11" value="description?: string" style="text;align=left;verticalAlign=top;spacingLeft=4;spacingRight=4;overflow=hidden;rotatable=0;points=[[0,0.5],[1,0.5]];portConstraint=eastwest;rounded=1;" parent="zkfFHV4jXpPFQw0GAbJ--6" vertex="1">
          <mxGeometry y="104" width="160" height="26" as="geometry" />
        </mxCell>
        <mxCell id="EX9fc1gSBjGgu7xqyz9W-57" style="edgeStyle=orthogonalEdgeStyle;rounded=0;orthogonalLoop=1;jettySize=auto;html=1;endArrow=none;startFill=0;" parent="WIyWlLk6GJQsqaUBKTNV-1" source="zkfFHV4jXpPFQw0GAbJ--13" target="zkfFHV4jXpPFQw0GAbJ--6" edge="1">
          <mxGeometry relative="1" as="geometry" />
        </mxCell>
        <mxCell id="EX9fc1gSBjGgu7xqyz9W-58" value="has-participant" style="edgeLabel;html=1;align=center;verticalAlign=middle;resizable=0;points=[];" parent="EX9fc1gSBjGgu7xqyz9W-57" vertex="1" connectable="0">
          <mxGeometry x="-0.6" relative="1" as="geometry">
            <mxPoint as="offset" />
          </mxGeometry>
        </mxCell>
        <mxCell id="EX9fc1gSBjGgu7xqyz9W-59" value="1..*" style="edgeLabel;html=1;align=center;verticalAlign=middle;resizable=0;points=[];" parent="EX9fc1gSBjGgu7xqyz9W-57" vertex="1" connectable="0">
          <mxGeometry x="-0.8" relative="1" as="geometry">
            <mxPoint as="offset" />
          </mxGeometry>
        </mxCell>
        <mxCell id="EX9fc1gSBjGgu7xqyz9W-60" value="0..*" style="edgeLabel;html=1;align=center;verticalAlign=middle;resizable=0;points=[];" parent="EX9fc1gSBjGgu7xqyz9W-57" vertex="1" connectable="0">
          <mxGeometry x="0.8" y="-1" relative="1" as="geometry">
            <mxPoint as="offset" />
          </mxGeometry>
        </mxCell>
        <mxCell id="EX9fc1gSBjGgu7xqyz9W-70" style="edgeStyle=orthogonalEdgeStyle;rounded=0;orthogonalLoop=1;jettySize=auto;html=1;endArrow=none;startFill=0;" parent="WIyWlLk6GJQsqaUBKTNV-1" source="zkfFHV4jXpPFQw0GAbJ--13" target="zkfFHV4jXpPFQw0GAbJ--17" edge="1">
          <mxGeometry relative="1" as="geometry">
            <Array as="points">
              <mxPoint x="560" y="680" />
              <mxPoint x="560" y="410" />
            </Array>
          </mxGeometry>
        </mxCell>
        <mxCell id="EX9fc1gSBjGgu7xqyz9W-71" value="1" style="edgeLabel;html=1;align=left;verticalAlign=middle;resizable=0;points=[];" parent="EX9fc1gSBjGgu7xqyz9W-70" vertex="1" connectable="0">
          <mxGeometry x="-1" relative="1" as="geometry">
            <mxPoint as="offset" />
          </mxGeometry>
        </mxCell>
        <mxCell id="EX9fc1gSBjGgu7xqyz9W-72" value="changed-by" style="edgeLabel;html=1;align=left;verticalAlign=middle;resizable=0;points=[];" parent="EX9fc1gSBjGgu7xqyz9W-70" vertex="1" connectable="0">
          <mxGeometry x="-0.93" relative="1" as="geometry">
            <mxPoint as="offset" />
          </mxGeometry>
        </mxCell>
        <mxCell id="EX9fc1gSBjGgu7xqyz9W-73" value="0..*" style="edgeLabel;html=1;align=right;verticalAlign=middle;resizable=0;points=[];" parent="EX9fc1gSBjGgu7xqyz9W-70" vertex="1" connectable="0">
          <mxGeometry x="1" relative="1" as="geometry">
            <mxPoint as="offset" />
          </mxGeometry>
        </mxCell>
        <mxCell id="zkfFHV4jXpPFQw0GAbJ--13" value="User" style="swimlane;fontStyle=0;align=center;verticalAlign=top;childLayout=stackLayout;horizontal=1;startSize=26;horizontalStack=0;resizeParent=1;resizeLast=0;collapsible=1;marginBottom=0;rounded=1;shadow=0;strokeWidth=1;fillColor=#bac8d3;strokeColor=#23445d;" parent="WIyWlLk6GJQsqaUBKTNV-1" vertex="1">
          <mxGeometry x="200" y="640" width="160" height="130" as="geometry">
            <mxRectangle x="200" y="640" width="160" height="26" as="alternateBounds" />
          </mxGeometry>
        </mxCell>
        <mxCell id="zkfFHV4jXpPFQw0GAbJ--14" value="id: name" style="text;align=left;verticalAlign=top;spacingLeft=4;spacingRight=4;overflow=hidden;rotatable=0;points=[[0,0.5],[1,0.5]];portConstraint=eastwest;fontStyle=4;rounded=1;" parent="zkfFHV4jXpPFQw0GAbJ--13" vertex="1">
          <mxGeometry y="26" width="160" height="26" as="geometry" />
        </mxCell>
        <mxCell id="EX9fc1gSBjGgu7xqyz9W-5" value="username: string&#xa;" style="text;align=left;verticalAlign=top;spacingLeft=4;spacingRight=4;overflow=hidden;rotatable=0;points=[[0,0.5],[1,0.5]];portConstraint=eastwest;fontStyle=0;rounded=1;" parent="zkfFHV4jXpPFQw0GAbJ--13" vertex="1">
          <mxGeometry y="52" width="160" height="26" as="geometry" />
        </mxCell>
        <mxCell id="EX9fc1gSBjGgu7xqyz9W-6" value="rank: author_association&#xa;" style="text;align=left;verticalAlign=top;spacingLeft=4;spacingRight=4;overflow=hidden;rotatable=0;points=[[0,0.5],[1,0.5]];portConstraint=eastwest;fontStyle=0;rounded=1;" parent="zkfFHV4jXpPFQw0GAbJ--13" vertex="1">
          <mxGeometry y="78" width="160" height="26" as="geometry" />
        </mxCell>
        <mxCell id="EX9fc1gSBjGgu7xqyz9W-7" value="type: kind_of_bot/user" style="text;align=left;verticalAlign=top;spacingLeft=4;spacingRight=4;overflow=hidden;rotatable=0;points=[[0,0.5],[1,0.5]];portConstraint=eastwest;fontStyle=0;rounded=1;" parent="zkfFHV4jXpPFQw0GAbJ--13" vertex="1">
          <mxGeometry y="104" width="160" height="26" as="geometry" />
        </mxCell>
        <mxCell id="zkfFHV4jXpPFQw0GAbJ--17" value="File" style="swimlane;fontStyle=0;align=center;verticalAlign=top;childLayout=stackLayout;horizontal=1;startSize=26;horizontalStack=0;resizeParent=1;resizeLast=0;collapsible=1;marginBottom=0;rounded=1;shadow=0;strokeWidth=1;fillColor=#dae8fc;strokeColor=#6c8ebf;" parent="WIyWlLk6GJQsqaUBKTNV-1" vertex="1">
          <mxGeometry x="600" y="120" width="160" height="336" as="geometry">
            <mxRectangle x="600" y="120" width="160" height="26" as="alternateBounds" />
          </mxGeometry>
        </mxCell>
        <mxCell id="zkfFHV4jXpPFQw0GAbJ--18" value="id: full_path" style="text;align=left;verticalAlign=top;spacingLeft=4;spacingRight=4;overflow=hidden;rotatable=0;points=[[0,0.5],[1,0.5]];portConstraint=eastwest;fontStyle=4;rounded=1;" parent="zkfFHV4jXpPFQw0GAbJ--17" vertex="1">
          <mxGeometry y="26" width="160" height="26" as="geometry" />
        </mxCell>
        <mxCell id="zkfFHV4jXpPFQw0GAbJ--19" value="weighted_method_count: int" style="text;align=left;verticalAlign=top;spacingLeft=4;spacingRight=4;overflow=hidden;rotatable=0;points=[[0,0.5],[1,0.5]];portConstraint=eastwest;rounded=1;shadow=0;html=0;" parent="zkfFHV4jXpPFQw0GAbJ--17" vertex="1">
          <mxGeometry y="52" width="160" height="26" as="geometry" />
        </mxCell>
        <mxCell id="zkfFHV4jXpPFQw0GAbJ--20" value="theta_1: int" style="text;align=left;verticalAlign=top;spacingLeft=4;spacingRight=4;overflow=hidden;rotatable=0;points=[[0,0.5],[1,0.5]];portConstraint=eastwest;rounded=1;shadow=0;html=0;" parent="zkfFHV4jXpPFQw0GAbJ--17" vertex="1">
          <mxGeometry y="78" width="160" height="26" as="geometry" />
        </mxCell>
        <mxCell id="zkfFHV4jXpPFQw0GAbJ--21" value="theta_2: int" style="text;align=left;verticalAlign=top;spacingLeft=4;spacingRight=4;overflow=hidden;rotatable=0;points=[[0,0.5],[1,0.5]];portConstraint=eastwest;rounded=1;shadow=0;html=0;" parent="zkfFHV4jXpPFQw0GAbJ--17" vertex="1">
          <mxGeometry y="104" width="160" height="26" as="geometry" />
        </mxCell>
        <mxCell id="zkfFHV4jXpPFQw0GAbJ--22" value="N_1: int" style="text;align=left;verticalAlign=top;spacingLeft=4;spacingRight=4;overflow=hidden;rotatable=0;points=[[0,0.5],[1,0.5]];portConstraint=eastwest;rounded=1;shadow=0;html=0;" parent="zkfFHV4jXpPFQw0GAbJ--17" vertex="1">
          <mxGeometry y="130" width="160" height="26" as="geometry" />
        </mxCell>
        <mxCell id="zkfFHV4jXpPFQw0GAbJ--24" value="N_2: int" style="text;align=left;verticalAlign=top;spacingLeft=4;spacingRight=4;overflow=hidden;rotatable=0;points=[[0,0.5],[1,0.5]];portConstraint=eastwest;rounded=1;" parent="zkfFHV4jXpPFQw0GAbJ--17" vertex="1">
          <mxGeometry y="156" width="160" height="26" as="geometry" />
        </mxCell>
        <mxCell id="zkfFHV4jXpPFQw0GAbJ--25" value="lloc: int" style="text;align=left;verticalAlign=top;spacingLeft=4;spacingRight=4;overflow=hidden;rotatable=0;points=[[0,0.5],[1,0.5]];portConstraint=eastwest;rounded=1;" parent="zkfFHV4jXpPFQw0GAbJ--17" vertex="1">
          <mxGeometry y="182" width="160" height="26" as="geometry" />
        </mxCell>
        <mxCell id="EX9fc1gSBjGgu7xqyz9W-8" value="loc: int" style="text;align=left;verticalAlign=top;spacingLeft=4;spacingRight=4;overflow=hidden;rotatable=0;points=[[0,0.5],[1,0.5]];portConstraint=eastwest;fontStyle=0;rounded=1;" parent="zkfFHV4jXpPFQw0GAbJ--17" vertex="1">
          <mxGeometry y="208" width="160" height="26" as="geometry" />
        </mxCell>
        <mxCell id="EX9fc1gSBjGgu7xqyz9W-9" value="sloc: int" style="text;align=left;verticalAlign=top;spacingLeft=4;spacingRight=4;overflow=hidden;rotatable=0;points=[[0,0.5],[1,0.5]];portConstraint=eastwest;fontStyle=0;rounded=1;" parent="zkfFHV4jXpPFQw0GAbJ--17" vertex="1">
          <mxGeometry y="234" width="160" height="26" as="geometry" />
        </mxCell>
        <mxCell id="EX9fc1gSBjGgu7xqyz9W-10" value="comment_lines: int" style="text;align=left;verticalAlign=top;spacingLeft=4;spacingRight=4;overflow=hidden;rotatable=0;points=[[0,0.5],[1,0.5]];portConstraint=eastwest;fontStyle=0;rounded=1;" parent="zkfFHV4jXpPFQw0GAbJ--17" vertex="1">
          <mxGeometry y="260" width="160" height="26" as="geometry" />
        </mxCell>
        <mxCell id="EX9fc1gSBjGgu7xqyz9W-11" value="documentation_liens: int" style="text;align=left;verticalAlign=top;spacingLeft=4;spacingRight=4;overflow=hidden;rotatable=0;points=[[0,0.5],[1,0.5]];portConstraint=eastwest;fontStyle=0;rounded=1;" parent="zkfFHV4jXpPFQw0GAbJ--17" vertex="1">
          <mxGeometry y="286" width="160" height="24" as="geometry" />
        </mxCell>
        <mxCell id="EX9fc1gSBjGgu7xqyz9W-12" value="blank_lines:int" style="text;align=left;verticalAlign=top;spacingLeft=4;spacingRight=4;overflow=hidden;rotatable=0;points=[[0,0.5],[1,0.5]];portConstraint=eastwest;fontStyle=0;rounded=1;" parent="zkfFHV4jXpPFQw0GAbJ--17" vertex="1">
          <mxGeometry y="310" width="160" height="26" as="geometry" />
        </mxCell>
        <mxCell id="EX9fc1gSBjGgu7xqyz9W-0" style="edgeStyle=orthogonalEdgeStyle;rounded=1;orthogonalLoop=1;jettySize=auto;html=1;endArrow=none;startFill=0;" parent="WIyWlLk6GJQsqaUBKTNV-1" source="zkfFHV4jXpPFQw0GAbJ--0" target="zkfFHV4jXpPFQw0GAbJ--0" edge="1">
          <mxGeometry relative="1" as="geometry">
            <Array as="points">
              <mxPoint x="240" y="90" />
              <mxPoint x="320" y="90" />
            </Array>
          </mxGeometry>
        </mxCell>
        <mxCell id="EX9fc1gSBjGgu7xqyz9W-1" value="is-child-of" style="edgeLabel;html=1;align=center;verticalAlign=middle;resizable=0;points=[];rounded=1;" parent="EX9fc1gSBjGgu7xqyz9W-0" vertex="1" connectable="0">
          <mxGeometry x="0.0333" y="2" relative="1" as="geometry">
            <mxPoint x="-3" as="offset" />
          </mxGeometry>
        </mxCell>
        <mxCell id="EX9fc1gSBjGgu7xqyz9W-2" value="1..*" style="edgeLabel;html=1;align=center;verticalAlign=middle;resizable=0;points=[];rounded=1;" parent="EX9fc1gSBjGgu7xqyz9W-0" vertex="1" connectable="0">
          <mxGeometry relative="1" as="geometry">
            <mxPoint x="-39" y="20" as="offset" />
          </mxGeometry>
        </mxCell>
        <mxCell id="EX9fc1gSBjGgu7xqyz9W-3" value="1..*" style="edgeLabel;html=1;align=center;verticalAlign=middle;resizable=0;points=[];rounded=1;" parent="EX9fc1gSBjGgu7xqyz9W-0" vertex="1" connectable="0">
          <mxGeometry x="0.76" relative="1" as="geometry">
            <mxPoint y="7" as="offset" />
          </mxGeometry>
        </mxCell>
        <mxCell id="EX9fc1gSBjGgu7xqyz9W-30" value="" style="edgeStyle=orthogonalEdgeStyle;rounded=1;orthogonalLoop=1;jettySize=auto;html=1;endArrow=none;startFill=0;" parent="WIyWlLk6GJQsqaUBKTNV-1" source="zkfFHV4jXpPFQw0GAbJ--17" target="EX9fc1gSBjGgu7xqyz9W-15" edge="1">
          <mxGeometry relative="1" as="geometry" />
        </mxCell>
        <mxCell id="EX9fc1gSBjGgu7xqyz9W-31" value="has" style="edgeLabel;html=1;align=center;verticalAlign=middle;resizable=0;points=[];rounded=1;" parent="EX9fc1gSBjGgu7xqyz9W-30" vertex="1" connectable="0">
          <mxGeometry x="0.8368" relative="1" as="geometry">
            <mxPoint y="16" as="offset" />
          </mxGeometry>
        </mxCell>
        <mxCell id="EX9fc1gSBjGgu7xqyz9W-32" value="0..*" style="edgeLabel;html=1;align=center;verticalAlign=bottom;resizable=0;points=[];rounded=1;" parent="EX9fc1gSBjGgu7xqyz9W-30" vertex="1" connectable="0">
          <mxGeometry x="1" relative="1" as="geometry">
            <mxPoint x="2" as="offset" />
          </mxGeometry>
        </mxCell>
        <mxCell id="EX9fc1gSBjGgu7xqyz9W-33" value="1" style="edgeLabel;html=1;align=center;verticalAlign=middle;resizable=0;points=[];rounded=1;" parent="EX9fc1gSBjGgu7xqyz9W-30" vertex="1" connectable="0">
          <mxGeometry x="-0.8351" relative="1" as="geometry">
            <mxPoint y="-2" as="offset" />
          </mxGeometry>
        </mxCell>
        <mxCell id="EX9fc1gSBjGgu7xqyz9W-47" value="has" style="edgeLabel;html=1;align=center;verticalAlign=middle;resizable=0;points=[];" parent="EX9fc1gSBjGgu7xqyz9W-30" vertex="1" connectable="0">
          <mxGeometry x="0.5556" relative="1" as="geometry">
            <mxPoint as="offset" />
          </mxGeometry>
        </mxCell>
        <mxCell id="EX9fc1gSBjGgu7xqyz9W-15" value="Method" style="swimlane;fontStyle=0;align=center;verticalAlign=top;childLayout=stackLayout;horizontal=1;startSize=26;horizontalStack=0;resizeParent=1;resizeLast=0;collapsible=1;marginBottom=0;rounded=1;shadow=0;strokeWidth=1;" parent="WIyWlLk6GJQsqaUBKTNV-1" vertex="1">
          <mxGeometry x="600" y="640" width="160" height="110" as="geometry">
            <mxRectangle x="600" y="640" width="160" height="26" as="alternateBounds" />
          </mxGeometry>
        </mxCell>
        <mxCell id="EX9fc1gSBjGgu7xqyz9W-16" value="id: full_path/method_name" style="text;align=left;verticalAlign=top;spacingLeft=4;spacingRight=4;overflow=hidden;rotatable=0;points=[[0,0.5],[1,0.5]];portConstraint=eastwest;fontStyle=4;rounded=1;" parent="EX9fc1gSBjGgu7xqyz9W-15" vertex="1">
          <mxGeometry y="26" width="160" height="26" as="geometry" />
        </mxCell>
        <mxCell id="EX9fc1gSBjGgu7xqyz9W-17" value="cyclomatic_complexity: int " style="text;align=left;verticalAlign=top;spacingLeft=4;spacingRight=4;overflow=hidden;rotatable=0;points=[[0,0.5],[1,0.5]];portConstraint=eastwest;rounded=1;shadow=0;html=0;fontStyle=0;" parent="EX9fc1gSBjGgu7xqyz9W-15" vertex="1">
          <mxGeometry y="52" width="160" height="26" as="geometry" />
        </mxCell>
        <mxCell id="EX9fc1gSBjGgu7xqyz9W-22" value="lloc: int" style="text;align=left;verticalAlign=top;spacingLeft=4;spacingRight=4;overflow=hidden;rotatable=0;points=[[0,0.5],[1,0.5]];portConstraint=eastwest;rounded=1;" parent="EX9fc1gSBjGgu7xqyz9W-15" vertex="1">
          <mxGeometry y="78" width="160" height="26" as="geometry" />
        </mxCell>
        <mxCell id="EX9fc1gSBjGgu7xqyz9W-48" style="edgeStyle=orthogonalEdgeStyle;rounded=0;orthogonalLoop=1;jettySize=auto;html=1;endArrow=none;startFill=0;" parent="WIyWlLk6GJQsqaUBKTNV-1" source="zkfFHV4jXpPFQw0GAbJ--13" target="EX9fc1gSBjGgu7xqyz9W-15" edge="1">
          <mxGeometry relative="1" as="geometry">
            <Array as="points">
              <mxPoint x="480" y="720" />
              <mxPoint x="480" y="720" />
            </Array>
          </mxGeometry>
        </mxCell>
        <mxCell id="EX9fc1gSBjGgu7xqyz9W-49" value="created-by" style="edgeLabel;html=1;align=left;verticalAlign=middle;resizable=0;points=[];" parent="EX9fc1gSBjGgu7xqyz9W-48" vertex="1" connectable="0">
          <mxGeometry x="-0.85" relative="1" as="geometry">
            <mxPoint as="offset" />
          </mxGeometry>
        </mxCell>
        <mxCell id="EX9fc1gSBjGgu7xqyz9W-50" value="1" style="edgeLabel;html=1;align=left;verticalAlign=middle;resizable=0;points=[];" parent="EX9fc1gSBjGgu7xqyz9W-48" vertex="1" connectable="0">
          <mxGeometry x="-1" relative="1" as="geometry">
            <mxPoint as="offset" />
          </mxGeometry>
        </mxCell>
        <mxCell id="EX9fc1gSBjGgu7xqyz9W-56" value="0..*" style="edgeLabel;html=1;align=center;verticalAlign=middle;resizable=0;points=[];" parent="EX9fc1gSBjGgu7xqyz9W-48" vertex="1" connectable="0">
          <mxGeometry x="0.7667" y="1" relative="1" as="geometry">
            <mxPoint x="13" as="offset" />
          </mxGeometry>
        </mxCell>
        <mxCell id="EX9fc1gSBjGgu7xqyz9W-53" value="0..*" style="endArrow=none;html=1;rounded=0;edgeStyle=orthogonalEdgeStyle;" parent="WIyWlLk6GJQsqaUBKTNV-1" source="zkfFHV4jXpPFQw0GAbJ--13" target="EX9fc1gSBjGgu7xqyz9W-15" edge="1">
          <mxGeometry x="0.875" width="50" height="50" relative="1" as="geometry">
            <mxPoint x="355" y="692.0034364261168" as="sourcePoint" />
            <mxPoint x="595" y="692.0034364261168" as="targetPoint" />
            <Array as="points">
              <mxPoint x="480" y="700" />
              <mxPoint x="480" y="700" />
            </Array>
            <mxPoint as="offset" />
          </mxGeometry>
        </mxCell>
        <mxCell id="EX9fc1gSBjGgu7xqyz9W-54" value="last-edited-by" style="edgeLabel;html=1;align=left;verticalAlign=middle;resizable=0;points=[];" parent="EX9fc1gSBjGgu7xqyz9W-53" vertex="1" connectable="0">
          <mxGeometry x="-0.85" relative="1" as="geometry">
            <mxPoint as="offset" />
          </mxGeometry>
        </mxCell>
        <mxCell id="EX9fc1gSBjGgu7xqyz9W-55" value="1" style="edgeLabel;html=1;align=left;verticalAlign=middle;resizable=0;points=[];" parent="EX9fc1gSBjGgu7xqyz9W-53" vertex="1" connectable="0">
          <mxGeometry x="-1" relative="1" as="geometry">
            <mxPoint as="offset" />
          </mxGeometry>
        </mxCell>
        <mxCell id="EX9fc1gSBjGgu7xqyz9W-43" style="edgeStyle=elbowEdgeStyle;rounded=1;orthogonalLoop=1;jettySize=auto;html=1;elbow=vertical;endArrow=none;startFill=0;curved=0;spacing=2;verticalAlign=middle;" parent="WIyWlLk6GJQsqaUBKTNV-1" source="EX9fc1gSBjGgu7xqyz9W-15" target="EX9fc1gSBjGgu7xqyz9W-15" edge="1">
          <mxGeometry relative="1" as="geometry">
            <mxPoint x="640" y="750" as="sourcePoint" />
            <mxPoint x="670.0000000000001" y="744" as="targetPoint" />
            <Array as="points">
              <mxPoint x="680" y="780" />
            </Array>
          </mxGeometry>
        </mxCell>
        <mxCell id="EX9fc1gSBjGgu7xqyz9W-44" value="calls-method" style="edgeLabel;html=1;align=center;verticalAlign=middle;resizable=0;points=[];labelPosition=center;verticalLabelPosition=bottom;" parent="EX9fc1gSBjGgu7xqyz9W-43" vertex="1" connectable="0">
          <mxGeometry relative="1" as="geometry">
            <mxPoint as="offset" />
          </mxGeometry>
        </mxCell>
        <mxCell id="EX9fc1gSBjGgu7xqyz9W-45" value="0..*" style="edgeLabel;html=1;align=center;verticalAlign=top;resizable=0;points=[];labelPosition=center;verticalLabelPosition=bottom;" parent="EX9fc1gSBjGgu7xqyz9W-43" vertex="1" connectable="0">
          <mxGeometry x="-1" relative="1" as="geometry">
            <mxPoint as="offset" />
          </mxGeometry>
        </mxCell>
        <mxCell id="EX9fc1gSBjGgu7xqyz9W-69" value="0..*" style="edgeLabel;html=1;align=center;verticalAlign=top;resizable=0;points=[];labelPosition=center;verticalLabelPosition=bottom;" parent="EX9fc1gSBjGgu7xqyz9W-43" vertex="1" connectable="0">
          <mxGeometry x="1" relative="1" as="geometry">
            <mxPoint as="offset" />
          </mxGeometry>
        </mxCell>
        <mxCell id="OsoryH45wkaK99GPfpwu-0" style="edgeStyle=orthogonalEdgeStyle;rounded=0;orthogonalLoop=1;jettySize=auto;html=1;fontSize=12;startSize=8;endSize=8;endArrow=none;startFill=0;" parent="WIyWlLk6GJQsqaUBKTNV-1" source="EX9fc1gSBjGgu7xqyz9W-5" target="zkfFHV4jXpPFQw0GAbJ--0" edge="1">
          <mxGeometry relative="1" as="geometry">
            <Array as="points">
              <mxPoint x="80" y="705" />
              <mxPoint x="80" y="190" />
            </Array>
          </mxGeometry>
        </mxCell>
        <mxCell id="OsoryH45wkaK99GPfpwu-1" value="is-authored-by" style="edgeLabel;html=1;align=right;verticalAlign=middle;resizable=0;points=[];fontSize=12;spacing=2;" parent="OsoryH45wkaK99GPfpwu-0" vertex="1" connectable="0">
          <mxGeometry x="-0.94" relative="1" as="geometry">
            <mxPoint as="offset" />
          </mxGeometry>
        </mxCell>
        <mxCell id="OsoryH45wkaK99GPfpwu-2" value="1..*" style="edgeLabel;html=1;align=right;verticalAlign=middle;resizable=0;points=[];fontSize=12;spacing=2;" parent="OsoryH45wkaK99GPfpwu-0" vertex="1" connectable="0">
          <mxGeometry x="-1" relative="1" as="geometry">
            <mxPoint as="offset" />
          </mxGeometry>
        </mxCell>
        <mxCell id="dGSDt7Tnk5ZxoIO6iwxw-0" value="commit-to-pull-request" style="swimlane;fontStyle=0;childLayout=stackLayout;horizontal=1;startSize=30;horizontalStack=0;resizeParent=1;resizeParentMax=0;resizeLast=0;collapsible=1;marginBottom=0;whiteSpace=wrap;html=1;" parent="WIyWlLk6GJQsqaUBKTNV-1" vertex="1">
          <mxGeometry x="900" y="240" width="140" height="120" as="geometry" />
        </mxCell>
        <mxCell id="dGSDt7Tnk5ZxoIO6iwxw-1" value="sha: commit" style="text;strokeColor=#d6b656;fillColor=#fff2cc;align=left;verticalAlign=middle;spacingLeft=4;spacingRight=4;overflow=hidden;points=[[0,0.5],[1,0.5]];portConstraint=eastwest;rotatable=0;whiteSpace=wrap;html=1;" parent="dGSDt7Tnk5ZxoIO6iwxw-0" vertex="1">
          <mxGeometry y="30" width="140" height="30" as="geometry" />
        </mxCell>
        <mxCell id="dGSDt7Tnk5ZxoIO6iwxw-2" value="author: user" style="text;strokeColor=#23445d;fillColor=#bac8d3;align=left;verticalAlign=middle;spacingLeft=4;spacingRight=4;overflow=hidden;points=[[0,0.5],[1,0.5]];portConstraint=eastwest;rotatable=0;whiteSpace=wrap;html=1;" parent="dGSDt7Tnk5ZxoIO6iwxw-0" vertex="1">
          <mxGeometry y="60" width="140" height="30" as="geometry" />
        </mxCell>
        <mxCell id="dGSDt7Tnk5ZxoIO6iwxw-3" value="pr: pull_request" style="text;strokeColor=#d79b00;fillColor=#ffe6cc;align=left;verticalAlign=middle;spacingLeft=4;spacingRight=4;overflow=hidden;points=[[0,0.5],[1,0.5]];portConstraint=eastwest;rotatable=0;whiteSpace=wrap;html=1;" parent="dGSDt7Tnk5ZxoIO6iwxw-0" vertex="1">
          <mxGeometry y="90" width="140" height="30" as="geometry" />
        </mxCell>
        <mxCell id="dGSDt7Tnk5ZxoIO6iwxw-4" value="label-pull-request" style="swimlane;fontStyle=0;childLayout=stackLayout;horizontal=1;startSize=30;horizontalStack=0;resizeParent=1;resizeParentMax=0;resizeLast=0;collapsible=1;marginBottom=0;whiteSpace=wrap;html=1;" parent="WIyWlLk6GJQsqaUBKTNV-1" vertex="1">
          <mxGeometry x="820" y="370" width="140" height="120" as="geometry" />
        </mxCell>
        <mxCell id="dGSDt7Tnk5ZxoIO6iwxw-6" value="issuer: user" style="text;strokeColor=#23445d;fillColor=#bac8d3;align=left;verticalAlign=middle;spacingLeft=4;spacingRight=4;overflow=hidden;points=[[0,0.5],[1,0.5]];portConstraint=eastwest;rotatable=0;whiteSpace=wrap;html=1;" parent="dGSDt7Tnk5ZxoIO6iwxw-4" vertex="1">
          <mxGeometry y="30" width="140" height="30" as="geometry" />
        </mxCell>
        <mxCell id="dGSDt7Tnk5ZxoIO6iwxw-7" value="pr: pull_request" style="text;strokeColor=#d79b00;fillColor=#ffe6cc;align=left;verticalAlign=middle;spacingLeft=4;spacingRight=4;overflow=hidden;points=[[0,0.5],[1,0.5]];portConstraint=eastwest;rotatable=0;whiteSpace=wrap;html=1;" parent="dGSDt7Tnk5ZxoIO6iwxw-4" vertex="1">
          <mxGeometry y="60" width="140" height="30" as="geometry" />
        </mxCell>
        <mxCell id="cFPhVOMwrruSEyY2H_j8-7" value="label: label" style="text;strokeColor=#d79b00;fillColor=#ffe6cc;align=left;verticalAlign=middle;spacingLeft=4;spacingRight=4;overflow=hidden;points=[[0,0.5],[1,0.5]];portConstraint=eastwest;rotatable=0;whiteSpace=wrap;html=1;" vertex="1" parent="dGSDt7Tnk5ZxoIO6iwxw-4">
          <mxGeometry y="90" width="140" height="30" as="geometry" />
        </mxCell>
        <mxCell id="dGSDt7Tnk5ZxoIO6iwxw-9" value="unlabel-pull-request" style="swimlane;fontStyle=0;childLayout=stackLayout;horizontal=1;startSize=30;horizontalStack=0;resizeParent=1;resizeParentMax=0;resizeLast=0;collapsible=1;marginBottom=0;whiteSpace=wrap;html=1;" parent="WIyWlLk6GJQsqaUBKTNV-1" vertex="1">
          <mxGeometry x="980" y="370" width="140" height="120" as="geometry" />
        </mxCell>
        <mxCell id="dGSDt7Tnk5ZxoIO6iwxw-10" value="issuer: user" style="text;strokeColor=#23445d;fillColor=#bac8d3;align=left;verticalAlign=middle;spacingLeft=4;spacingRight=4;overflow=hidden;points=[[0,0.5],[1,0.5]];portConstraint=eastwest;rotatable=0;whiteSpace=wrap;html=1;" parent="dGSDt7Tnk5ZxoIO6iwxw-9" vertex="1">
          <mxGeometry y="30" width="140" height="30" as="geometry" />
        </mxCell>
        <mxCell id="dGSDt7Tnk5ZxoIO6iwxw-11" value="pr: pull_request" style="text;strokeColor=#d79b00;fillColor=#ffe6cc;align=left;verticalAlign=middle;spacingLeft=4;spacingRight=4;overflow=hidden;points=[[0,0.5],[1,0.5]];portConstraint=eastwest;rotatable=0;whiteSpace=wrap;html=1;" parent="dGSDt7Tnk5ZxoIO6iwxw-9" vertex="1">
          <mxGeometry y="60" width="140" height="30" as="geometry" />
        </mxCell>
        <mxCell id="cFPhVOMwrruSEyY2H_j8-6" value="label: label" style="text;strokeColor=#d79b00;fillColor=#ffe6cc;align=left;verticalAlign=middle;spacingLeft=4;spacingRight=4;overflow=hidden;points=[[0,0.5],[1,0.5]];portConstraint=eastwest;rotatable=0;whiteSpace=wrap;html=1;" vertex="1" parent="dGSDt7Tnk5ZxoIO6iwxw-9">
          <mxGeometry y="90" width="140" height="30" as="geometry" />
        </mxCell>
        <mxCell id="dGSDt7Tnk5ZxoIO6iwxw-14" value="create-pull-request" style="swimlane;fontStyle=0;childLayout=stackLayout;horizontal=1;startSize=30;horizontalStack=0;resizeParent=1;resizeParentMax=0;resizeLast=0;collapsible=1;marginBottom=0;whiteSpace=wrap;html=1;" parent="WIyWlLk6GJQsqaUBKTNV-1" vertex="1">
          <mxGeometry x="900" y="10" width="140" height="90" as="geometry" />
        </mxCell>
        <mxCell id="dGSDt7Tnk5ZxoIO6iwxw-16" value="author: user" style="text;strokeColor=#23445d;fillColor=#bac8d3;align=left;verticalAlign=middle;spacingLeft=4;spacingRight=4;overflow=hidden;points=[[0,0.5],[1,0.5]];portConstraint=eastwest;rotatable=0;whiteSpace=wrap;html=1;" parent="dGSDt7Tnk5ZxoIO6iwxw-14" vertex="1">
          <mxGeometry y="30" width="140" height="30" as="geometry" />
        </mxCell>
        <mxCell id="dGSDt7Tnk5ZxoIO6iwxw-17" value="pr: pull_request" style="text;strokeColor=#d79b00;fillColor=#ffe6cc;align=left;verticalAlign=middle;spacingLeft=4;spacingRight=4;overflow=hidden;points=[[0,0.5],[1,0.5]];portConstraint=eastwest;rotatable=0;whiteSpace=wrap;html=1;" parent="dGSDt7Tnk5ZxoIO6iwxw-14" vertex="1">
          <mxGeometry y="60" width="140" height="30" as="geometry" />
        </mxCell>
        <mxCell id="dGSDt7Tnk5ZxoIO6iwxw-19" value="merge-pull-request" style="swimlane;fontStyle=0;childLayout=stackLayout;horizontal=1;startSize=30;horizontalStack=0;resizeParent=1;resizeParentMax=0;resizeLast=0;collapsible=1;marginBottom=0;whiteSpace=wrap;html=1;" parent="WIyWlLk6GJQsqaUBKTNV-1" vertex="1">
          <mxGeometry x="900" y="1085" width="140" height="90" as="geometry" />
        </mxCell>
        <mxCell id="dGSDt7Tnk5ZxoIO6iwxw-20" value="user: user" style="text;strokeColor=#23445d;fillColor=#bac8d3;align=left;verticalAlign=middle;spacingLeft=4;spacingRight=4;overflow=hidden;points=[[0,0.5],[1,0.5]];portConstraint=eastwest;rotatable=0;whiteSpace=wrap;html=1;" parent="dGSDt7Tnk5ZxoIO6iwxw-19" vertex="1">
          <mxGeometry y="30" width="140" height="30" as="geometry" />
        </mxCell>
        <mxCell id="dGSDt7Tnk5ZxoIO6iwxw-21" value="pr: pull_request" style="text;strokeColor=#d79b00;fillColor=#ffe6cc;align=left;verticalAlign=middle;spacingLeft=4;spacingRight=4;overflow=hidden;points=[[0,0.5],[1,0.5]];portConstraint=eastwest;rotatable=0;whiteSpace=wrap;html=1;" parent="dGSDt7Tnk5ZxoIO6iwxw-19" vertex="1">
          <mxGeometry y="60" width="140" height="30" as="geometry" />
        </mxCell>
        <mxCell id="dGSDt7Tnk5ZxoIO6iwxw-22" value="close-pull-request" style="swimlane;fontStyle=0;childLayout=stackLayout;horizontal=1;startSize=30;horizontalStack=0;resizeParent=1;resizeParentMax=0;resizeLast=0;collapsible=1;marginBottom=0;whiteSpace=wrap;html=1;" parent="WIyWlLk6GJQsqaUBKTNV-1" vertex="1">
          <mxGeometry x="900" y="1195" width="140" height="90" as="geometry" />
        </mxCell>
        <mxCell id="dGSDt7Tnk5ZxoIO6iwxw-23" value="user: user" style="text;strokeColor=#23445d;fillColor=#bac8d3;align=left;verticalAlign=middle;spacingLeft=4;spacingRight=4;overflow=hidden;points=[[0,0.5],[1,0.5]];portConstraint=eastwest;rotatable=0;whiteSpace=wrap;html=1;" parent="dGSDt7Tnk5ZxoIO6iwxw-22" vertex="1">
          <mxGeometry y="30" width="140" height="30" as="geometry" />
        </mxCell>
        <mxCell id="dGSDt7Tnk5ZxoIO6iwxw-24" value="pr: pull_request" style="text;strokeColor=#d79b00;fillColor=#ffe6cc;align=left;verticalAlign=middle;spacingLeft=4;spacingRight=4;overflow=hidden;points=[[0,0.5],[1,0.5]];portConstraint=eastwest;rotatable=0;whiteSpace=wrap;html=1;" parent="dGSDt7Tnk5ZxoIO6iwxw-22" vertex="1">
          <mxGeometry y="60" width="140" height="30" as="geometry" />
        </mxCell>
        <mxCell id="dGSDt7Tnk5ZxoIO6iwxw-26" value="assign-to-pull-request" style="swimlane;fontStyle=0;childLayout=stackLayout;horizontal=1;startSize=30;horizontalStack=0;resizeParent=1;resizeParentMax=0;resizeLast=0;collapsible=1;marginBottom=0;whiteSpace=wrap;html=1;" parent="WIyWlLk6GJQsqaUBKTNV-1" vertex="1">
          <mxGeometry x="820" y="592" width="140" height="120" as="geometry" />
        </mxCell>
        <mxCell id="dGSDt7Tnk5ZxoIO6iwxw-27" value="assigner: user" style="text;strokeColor=#23445d;fillColor=#bac8d3;align=left;verticalAlign=middle;spacingLeft=4;spacingRight=4;overflow=hidden;points=[[0,0.5],[1,0.5]];portConstraint=eastwest;rotatable=0;whiteSpace=wrap;html=1;" parent="dGSDt7Tnk5ZxoIO6iwxw-26" vertex="1">
          <mxGeometry y="30" width="140" height="30" as="geometry" />
        </mxCell>
        <mxCell id="dGSDt7Tnk5ZxoIO6iwxw-29" value="assignee: user" style="text;strokeColor=#23445d;fillColor=#bac8d3;align=left;verticalAlign=middle;spacingLeft=4;spacingRight=4;overflow=hidden;points=[[0,0.5],[1,0.5]];portConstraint=eastwest;rotatable=0;whiteSpace=wrap;html=1;" parent="dGSDt7Tnk5ZxoIO6iwxw-26" vertex="1">
          <mxGeometry y="60" width="140" height="30" as="geometry" />
        </mxCell>
        <mxCell id="dGSDt7Tnk5ZxoIO6iwxw-28" value="pr: pull_request" style="text;strokeColor=#d79b00;fillColor=#ffe6cc;align=left;verticalAlign=middle;spacingLeft=4;spacingRight=4;overflow=hidden;points=[[0,0.5],[1,0.5]];portConstraint=eastwest;rotatable=0;whiteSpace=wrap;html=1;" parent="dGSDt7Tnk5ZxoIO6iwxw-26" vertex="1">
          <mxGeometry y="90" width="140" height="30" as="geometry" />
        </mxCell>
        <mxCell id="dGSDt7Tnk5ZxoIO6iwxw-30" value="unassign-from-pull-request" style="swimlane;fontStyle=0;childLayout=stackLayout;horizontal=1;startSize=30;horizontalStack=0;resizeParent=1;resizeParentMax=0;resizeLast=0;collapsible=1;marginBottom=0;whiteSpace=wrap;html=1;" parent="WIyWlLk6GJQsqaUBKTNV-1" vertex="1">
          <mxGeometry x="980" y="592" width="140" height="120" as="geometry" />
        </mxCell>
        <mxCell id="dGSDt7Tnk5ZxoIO6iwxw-31" value="assigner: user" style="text;strokeColor=#23445d;fillColor=#bac8d3;align=left;verticalAlign=middle;spacingLeft=4;spacingRight=4;overflow=hidden;points=[[0,0.5],[1,0.5]];portConstraint=eastwest;rotatable=0;whiteSpace=wrap;html=1;" parent="dGSDt7Tnk5ZxoIO6iwxw-30" vertex="1">
          <mxGeometry y="30" width="140" height="30" as="geometry" />
        </mxCell>
        <mxCell id="dGSDt7Tnk5ZxoIO6iwxw-32" value="assignee: user" style="text;strokeColor=#23445d;fillColor=#bac8d3;align=left;verticalAlign=middle;spacingLeft=4;spacingRight=4;overflow=hidden;points=[[0,0.5],[1,0.5]];portConstraint=eastwest;rotatable=0;whiteSpace=wrap;html=1;" parent="dGSDt7Tnk5ZxoIO6iwxw-30" vertex="1">
          <mxGeometry y="60" width="140" height="30" as="geometry" />
        </mxCell>
        <mxCell id="dGSDt7Tnk5ZxoIO6iwxw-33" value="pr: pull_request" style="text;strokeColor=#d79b00;fillColor=#ffe6cc;align=left;verticalAlign=middle;spacingLeft=4;spacingRight=4;overflow=hidden;points=[[0,0.5],[1,0.5]];portConstraint=eastwest;rotatable=0;whiteSpace=wrap;html=1;" parent="dGSDt7Tnk5ZxoIO6iwxw-30" vertex="1">
          <mxGeometry y="90" width="140" height="30" as="geometry" />
        </mxCell>
        <mxCell id="dGSDt7Tnk5ZxoIO6iwxw-34" value="comment-pull-request" style="swimlane;fontStyle=0;childLayout=stackLayout;horizontal=1;startSize=30;horizontalStack=0;resizeParent=1;resizeParentMax=0;resizeLast=0;collapsible=1;marginBottom=0;whiteSpace=wrap;html=1;" parent="WIyWlLk6GJQsqaUBKTNV-1" vertex="1">
          <mxGeometry x="900" y="737" width="140" height="90" as="geometry" />
        </mxCell>
        <mxCell id="dGSDt7Tnk5ZxoIO6iwxw-35" value="commenter: user" style="text;strokeColor=#23445d;fillColor=#bac8d3;align=left;verticalAlign=middle;spacingLeft=4;spacingRight=4;overflow=hidden;points=[[0,0.5],[1,0.5]];portConstraint=eastwest;rotatable=0;whiteSpace=wrap;html=1;" parent="dGSDt7Tnk5ZxoIO6iwxw-34" vertex="1">
          <mxGeometry y="30" width="140" height="30" as="geometry" />
        </mxCell>
        <mxCell id="dGSDt7Tnk5ZxoIO6iwxw-37" value="pr: pull_request" style="text;strokeColor=#d79b00;fillColor=#ffe6cc;align=left;verticalAlign=middle;spacingLeft=4;spacingRight=4;overflow=hidden;points=[[0,0.5],[1,0.5]];portConstraint=eastwest;rotatable=0;whiteSpace=wrap;html=1;" parent="dGSDt7Tnk5ZxoIO6iwxw-34" vertex="1">
          <mxGeometry y="60" width="140" height="30" as="geometry" />
        </mxCell>
        <mxCell id="dGSDt7Tnk5ZxoIO6iwxw-39" value="rename-pull-request" style="swimlane;fontStyle=0;childLayout=stackLayout;horizontal=1;startSize=30;horizontalStack=0;resizeParent=1;resizeParentMax=0;resizeLast=0;collapsible=1;marginBottom=0;whiteSpace=wrap;html=1;" parent="WIyWlLk6GJQsqaUBKTNV-1" vertex="1">
          <mxGeometry x="900" y="850" width="140" height="90" as="geometry" />
        </mxCell>
        <mxCell id="dGSDt7Tnk5ZxoIO6iwxw-40" value="issuer: user" style="text;strokeColor=#23445d;fillColor=#bac8d3;align=left;verticalAlign=middle;spacingLeft=4;spacingRight=4;overflow=hidden;points=[[0,0.5],[1,0.5]];portConstraint=eastwest;rotatable=0;whiteSpace=wrap;html=1;" parent="dGSDt7Tnk5ZxoIO6iwxw-39" vertex="1">
          <mxGeometry y="30" width="140" height="30" as="geometry" />
        </mxCell>
        <mxCell id="dGSDt7Tnk5ZxoIO6iwxw-41" value="pr: pull_request" style="text;strokeColor=#d79b00;fillColor=#ffe6cc;align=left;verticalAlign=middle;spacingLeft=4;spacingRight=4;overflow=hidden;points=[[0,0.5],[1,0.5]];portConstraint=eastwest;rotatable=0;whiteSpace=wrap;html=1;" parent="dGSDt7Tnk5ZxoIO6iwxw-39" vertex="1">
          <mxGeometry y="60" width="140" height="30" as="geometry" />
        </mxCell>
        <mxCell id="dGSDt7Tnk5ZxoIO6iwxw-43" value="review-comment-pull-request" style="swimlane;fontStyle=0;childLayout=stackLayout;horizontal=1;startSize=30;horizontalStack=0;resizeParent=1;resizeParentMax=0;resizeLast=0;collapsible=1;marginBottom=0;whiteSpace=wrap;html=1;" parent="WIyWlLk6GJQsqaUBKTNV-1" vertex="1">
          <mxGeometry x="750" y="970" width="140" height="90" as="geometry" />
        </mxCell>
        <mxCell id="dGSDt7Tnk5ZxoIO6iwxw-46" value="reviewer: user" style="text;strokeColor=#23445d;fillColor=#bac8d3;align=left;verticalAlign=middle;spacingLeft=4;spacingRight=4;overflow=hidden;points=[[0,0.5],[1,0.5]];portConstraint=eastwest;rotatable=0;whiteSpace=wrap;html=1;" parent="dGSDt7Tnk5ZxoIO6iwxw-43" vertex="1">
          <mxGeometry y="30" width="140" height="30" as="geometry" />
        </mxCell>
        <mxCell id="dGSDt7Tnk5ZxoIO6iwxw-45" value="pr: pull_request" style="text;strokeColor=#d79b00;fillColor=#ffe6cc;align=left;verticalAlign=middle;spacingLeft=4;spacingRight=4;overflow=hidden;points=[[0,0.5],[1,0.5]];portConstraint=eastwest;rotatable=0;whiteSpace=wrap;html=1;" parent="dGSDt7Tnk5ZxoIO6iwxw-43" vertex="1">
          <mxGeometry y="60" width="140" height="30" as="geometry" />
        </mxCell>
        <mxCell id="dGSDt7Tnk5ZxoIO6iwxw-47" value="approve-pull-request-review" style="swimlane;fontStyle=0;childLayout=stackLayout;horizontal=1;startSize=30;horizontalStack=0;resizeParent=1;resizeParentMax=0;resizeLast=0;collapsible=1;marginBottom=0;whiteSpace=wrap;html=1;" parent="WIyWlLk6GJQsqaUBKTNV-1" vertex="1">
          <mxGeometry x="900" y="970" width="140" height="90" as="geometry" />
        </mxCell>
        <mxCell id="dGSDt7Tnk5ZxoIO6iwxw-48" value="reviewer: user" style="text;strokeColor=#23445d;fillColor=#bac8d3;align=left;verticalAlign=middle;spacingLeft=4;spacingRight=4;overflow=hidden;points=[[0,0.5],[1,0.5]];portConstraint=eastwest;rotatable=0;whiteSpace=wrap;html=1;" parent="dGSDt7Tnk5ZxoIO6iwxw-47" vertex="1">
          <mxGeometry y="30" width="140" height="30" as="geometry" />
        </mxCell>
        <mxCell id="dGSDt7Tnk5ZxoIO6iwxw-49" value="pr: pull_request" style="text;strokeColor=#d79b00;fillColor=#ffe6cc;align=left;verticalAlign=middle;spacingLeft=4;spacingRight=4;overflow=hidden;points=[[0,0.5],[1,0.5]];portConstraint=eastwest;rotatable=0;whiteSpace=wrap;html=1;" parent="dGSDt7Tnk5ZxoIO6iwxw-47" vertex="1">
          <mxGeometry y="60" width="140" height="30" as="geometry" />
        </mxCell>
        <mxCell id="dGSDt7Tnk5ZxoIO6iwxw-53" value="dismiss-pull-request-review" style="swimlane;fontStyle=0;childLayout=stackLayout;horizontal=1;startSize=30;horizontalStack=0;resizeParent=1;resizeParentMax=0;resizeLast=0;collapsible=1;marginBottom=0;whiteSpace=wrap;html=1;" parent="WIyWlLk6GJQsqaUBKTNV-1" vertex="1">
          <mxGeometry x="1050" y="970" width="140" height="90" as="geometry" />
        </mxCell>
        <mxCell id="dGSDt7Tnk5ZxoIO6iwxw-54" value="reviewer: user" style="text;strokeColor=#23445d;fillColor=#bac8d3;align=left;verticalAlign=middle;spacingLeft=4;spacingRight=4;overflow=hidden;points=[[0,0.5],[1,0.5]];portConstraint=eastwest;rotatable=0;whiteSpace=wrap;html=1;" parent="dGSDt7Tnk5ZxoIO6iwxw-53" vertex="1">
          <mxGeometry y="30" width="140" height="30" as="geometry" />
        </mxCell>
        <mxCell id="dGSDt7Tnk5ZxoIO6iwxw-55" value="pr: pull_request" style="text;strokeColor=#d79b00;fillColor=#ffe6cc;align=left;verticalAlign=middle;spacingLeft=4;spacingRight=4;overflow=hidden;points=[[0,0.5],[1,0.5]];portConstraint=eastwest;rotatable=0;whiteSpace=wrap;html=1;" parent="dGSDt7Tnk5ZxoIO6iwxw-53" vertex="1">
          <mxGeometry y="60" width="140" height="30" as="geometry" />
        </mxCell>
        <mxCell id="dGSDt7Tnk5ZxoIO6iwxw-56" value="re-open-pull-request" style="swimlane;fontStyle=0;childLayout=stackLayout;horizontal=1;startSize=30;horizontalStack=0;resizeParent=1;resizeParentMax=0;resizeLast=0;collapsible=1;marginBottom=0;whiteSpace=wrap;html=1;" parent="WIyWlLk6GJQsqaUBKTNV-1" vertex="1">
          <mxGeometry x="900" y="1305" width="140" height="90" as="geometry" />
        </mxCell>
        <mxCell id="dGSDt7Tnk5ZxoIO6iwxw-57" value="user: user" style="text;strokeColor=#23445d;fillColor=#bac8d3;align=left;verticalAlign=middle;spacingLeft=4;spacingRight=4;overflow=hidden;points=[[0,0.5],[1,0.5]];portConstraint=eastwest;rotatable=0;whiteSpace=wrap;html=1;" parent="dGSDt7Tnk5ZxoIO6iwxw-56" vertex="1">
          <mxGeometry y="30" width="140" height="30" as="geometry" />
        </mxCell>
        <mxCell id="dGSDt7Tnk5ZxoIO6iwxw-58" value="pr: pull_request" style="text;strokeColor=#d79b00;fillColor=#ffe6cc;align=left;verticalAlign=middle;spacingLeft=4;spacingRight=4;overflow=hidden;points=[[0,0.5],[1,0.5]];portConstraint=eastwest;rotatable=0;whiteSpace=wrap;html=1;" parent="dGSDt7Tnk5ZxoIO6iwxw-56" vertex="1">
          <mxGeometry y="60" width="140" height="30" as="geometry" />
        </mxCell>
        <mxCell id="dGSDt7Tnk5ZxoIO6iwxw-60" value="change-file" style="swimlane;fontStyle=0;childLayout=stackLayout;horizontal=1;startSize=30;horizontalStack=0;resizeParent=1;resizeParentMax=0;resizeLast=0;collapsible=1;marginBottom=0;whiteSpace=wrap;html=1;" parent="WIyWlLk6GJQsqaUBKTNV-1" vertex="1">
          <mxGeometry x="900" y="110" width="140" height="120" as="geometry" />
        </mxCell>
        <mxCell id="dGSDt7Tnk5ZxoIO6iwxw-61" value="sha: commit" style="text;strokeColor=#d6b656;fillColor=#fff2cc;align=left;verticalAlign=middle;spacingLeft=4;spacingRight=4;overflow=hidden;points=[[0,0.5],[1,0.5]];portConstraint=eastwest;rotatable=0;whiteSpace=wrap;html=1;" parent="dGSDt7Tnk5ZxoIO6iwxw-60" vertex="1">
          <mxGeometry y="30" width="140" height="30" as="geometry" />
        </mxCell>
        <mxCell id="dGSDt7Tnk5ZxoIO6iwxw-62" value="author: user" style="text;strokeColor=#23445d;fillColor=#bac8d3;align=left;verticalAlign=middle;spacingLeft=4;spacingRight=4;overflow=hidden;points=[[0,0.5],[1,0.5]];portConstraint=eastwest;rotatable=0;whiteSpace=wrap;html=1;" parent="dGSDt7Tnk5ZxoIO6iwxw-60" vertex="1">
          <mxGeometry y="60" width="140" height="30" as="geometry" />
        </mxCell>
        <mxCell id="dGSDt7Tnk5ZxoIO6iwxw-63" value="filename: file" style="text;strokeColor=#6c8ebf;fillColor=#dae8fc;align=left;verticalAlign=middle;spacingLeft=4;spacingRight=4;overflow=hidden;points=[[0,0.5],[1,0.5]];portConstraint=eastwest;rotatable=0;whiteSpace=wrap;html=1;" parent="dGSDt7Tnk5ZxoIO6iwxw-60" vertex="1">
          <mxGeometry y="90" width="140" height="30" as="geometry" />
        </mxCell>
        <mxCell id="2-shO3m1eGULjjPYNkJ5-1" value="Label" style="swimlane;fontStyle=0;align=center;verticalAlign=top;childLayout=stackLayout;horizontal=1;startSize=26;horizontalStack=0;resizeParent=1;resizeLast=0;collapsible=1;marginBottom=0;rounded=1;shadow=0;strokeWidth=1;fillColor=#d5e8d4;strokeColor=#82b366;" vertex="1" parent="WIyWlLk6GJQsqaUBKTNV-1">
          <mxGeometry x="380" y="540" width="160" height="52" as="geometry">
            <mxRectangle x="200" y="40" width="160" height="26" as="alternateBounds" />
          </mxGeometry>
        </mxCell>
        <mxCell id="2-shO3m1eGULjjPYNkJ5-2" value="id: name" style="text;align=left;verticalAlign=top;spacingLeft=4;spacingRight=4;overflow=hidden;rotatable=0;points=[[0,0.5],[1,0.5]];portConstraint=eastwest;fontStyle=4;rounded=1;" vertex="1" parent="2-shO3m1eGULjjPYNkJ5-1">
          <mxGeometry y="26" width="160" height="26" as="geometry" />
        </mxCell>
      </root>
    </mxGraphModel>
  </diagram>
  <diagram id="MQlubie60wBIQaROKki1" name="Sequence-Diagram">
    <mxGraphModel dx="671" dy="1293" grid="1" gridSize="10" guides="1" tooltips="1" connect="1" arrows="1" fold="1" page="1" pageScale="1" pageWidth="1169" pageHeight="827" math="0" shadow="0">
      <root>
        <mxCell id="0" />
        <mxCell id="1" parent="0" />
        <mxCell id="ABt2acHJ1TTvE4cJWGHj-38" value="Review activity" style="shape=note;whiteSpace=wrap;html=1;backgroundOutline=1;darkOpacity=0.05;size=5;fillColor=#fff2cc;strokeColor=#d6b656;fontSize=4;align=left;verticalAlign=top;spacingLeft=4;" parent="1" vertex="1">
          <mxGeometry x="490" y="-620" width="220" height="130" as="geometry" />
        </mxCell>
        <mxCell id="ABt2acHJ1TTvE4cJWGHj-1" value="" style="endArrow=none;dashed=1;html=1;dashPattern=1 3;strokeWidth=2;rounded=0;fontSize=12;startSize=8;endSize=8;curved=1;" parent="1" source="ABt2acHJ1TTvE4cJWGHj-7" edge="1">
          <mxGeometry width="50" height="50" relative="1" as="geometry">
            <mxPoint x="240" y="-440" as="sourcePoint" />
            <mxPoint x="240" y="-760" as="targetPoint" />
          </mxGeometry>
        </mxCell>
        <mxCell id="ABt2acHJ1TTvE4cJWGHj-2" value="Commit" style="rounded=0;whiteSpace=wrap;html=1;" parent="1" vertex="1">
          <mxGeometry x="80" y="-800" width="80" height="40" as="geometry" />
        </mxCell>
        <mxCell id="ABt2acHJ1TTvE4cJWGHj-3" value="Pull Request" style="rounded=0;whiteSpace=wrap;html=1;" parent="1" vertex="1">
          <mxGeometry x="320" y="-800" width="80" height="40" as="geometry" />
        </mxCell>
        <mxCell id="ABt2acHJ1TTvE4cJWGHj-4" value="Review" style="rounded=0;whiteSpace=wrap;html=1;" parent="1" vertex="1">
          <mxGeometry x="560" y="-800" width="80" height="40" as="geometry" />
        </mxCell>
        <mxCell id="ABt2acHJ1TTvE4cJWGHj-5" value="" style="endArrow=none;dashed=1;html=1;dashPattern=1 3;strokeWidth=2;rounded=0;fontSize=12;startSize=8;endSize=8;curved=1;" parent="1" edge="1">
          <mxGeometry width="50" height="50" relative="1" as="geometry">
            <mxPoint x="480" y="-440" as="sourcePoint" />
            <mxPoint x="480" y="-760" as="targetPoint" />
          </mxGeometry>
        </mxCell>
        <mxCell id="ABt2acHJ1TTvE4cJWGHj-28" style="edgeStyle=orthogonalEdgeStyle;curved=1;rounded=0;orthogonalLoop=1;jettySize=auto;html=1;entryX=0.5;entryY=0;entryDx=0;entryDy=0;fontSize=12;startSize=8;endSize=8;" parent="1" source="ABt2acHJ1TTvE4cJWGHj-6" target="ABt2acHJ1TTvE4cJWGHj-7" edge="1">
          <mxGeometry relative="1" as="geometry" />
        </mxCell>
        <mxCell id="ABt2acHJ1TTvE4cJWGHj-36" style="edgeStyle=none;curved=1;rounded=0;orthogonalLoop=1;jettySize=auto;html=1;entryX=0.5;entryY=0;entryDx=0;entryDy=0;fontSize=12;startSize=8;endSize=8;" parent="1" source="ABt2acHJ1TTvE4cJWGHj-6" target="ABt2acHJ1TTvE4cJWGHj-14" edge="1">
          <mxGeometry relative="1" as="geometry" />
        </mxCell>
        <mxCell id="ABt2acHJ1TTvE4cJWGHj-6" value="Open-PR" style="ellipse;whiteSpace=wrap;html=1;fontSize=6;align=center;" parent="1" vertex="1">
          <mxGeometry x="320" y="-740" width="80" height="20" as="geometry" />
        </mxCell>
        <mxCell id="ABt2acHJ1TTvE4cJWGHj-8" value="Revert-C" style="ellipse;whiteSpace=wrap;html=1;fontSize=6;align=center;" parent="1" vertex="1">
          <mxGeometry x="40" y="-560" width="80" height="20" as="geometry" />
        </mxCell>
        <mxCell id="ABt2acHJ1TTvE4cJWGHj-32" style="edgeStyle=none;curved=1;rounded=0;orthogonalLoop=1;jettySize=auto;html=1;fontSize=12;startSize=8;endSize=8;" parent="1" source="ABt2acHJ1TTvE4cJWGHj-10" target="ABt2acHJ1TTvE4cJWGHj-11" edge="1">
          <mxGeometry relative="1" as="geometry" />
        </mxCell>
        <mxCell id="ABt2acHJ1TTvE4cJWGHj-10" value="Assign-PR" style="ellipse;whiteSpace=wrap;html=1;fontSize=6;align=center;" parent="1" vertex="1">
          <mxGeometry x="260" y="-690" width="80" height="20" as="geometry" />
        </mxCell>
        <mxCell id="ABt2acHJ1TTvE4cJWGHj-11" value="Un-Assign-PR" style="ellipse;whiteSpace=wrap;html=1;fontSize=6;align=center;" parent="1" vertex="1">
          <mxGeometry x="260" y="-650" width="80" height="20" as="geometry" />
        </mxCell>
        <mxCell id="ABt2acHJ1TTvE4cJWGHj-33" style="edgeStyle=none;curved=1;rounded=0;orthogonalLoop=1;jettySize=auto;html=1;entryX=0.5;entryY=0;entryDx=0;entryDy=0;fontSize=12;startSize=8;endSize=8;" parent="1" source="ABt2acHJ1TTvE4cJWGHj-12" target="ABt2acHJ1TTvE4cJWGHj-13" edge="1">
          <mxGeometry relative="1" as="geometry" />
        </mxCell>
        <mxCell id="ABt2acHJ1TTvE4cJWGHj-12" value="Label-PR" style="ellipse;whiteSpace=wrap;html=1;fontSize=6;align=center;" parent="1" vertex="1">
          <mxGeometry x="370" y="-690" width="80" height="20" as="geometry" />
        </mxCell>
        <mxCell id="ABt2acHJ1TTvE4cJWGHj-49" style="edgeStyle=none;curved=1;rounded=0;orthogonalLoop=1;jettySize=auto;html=1;entryX=1;entryY=0.5;entryDx=0;entryDy=0;fontSize=12;startSize=8;endSize=8;" parent="1" source="ABt2acHJ1TTvE4cJWGHj-13" target="ABt2acHJ1TTvE4cJWGHj-7" edge="1">
          <mxGeometry relative="1" as="geometry" />
        </mxCell>
        <mxCell id="ABt2acHJ1TTvE4cJWGHj-13" value="Un-Label-PR" style="ellipse;whiteSpace=wrap;html=1;fontSize=6;align=center;" parent="1" vertex="1">
          <mxGeometry x="370" y="-650" width="80" height="20" as="geometry" />
        </mxCell>
        <mxCell id="ABt2acHJ1TTvE4cJWGHj-14" value="Comment-PR" style="ellipse;whiteSpace=wrap;html=1;fontSize=6;align=center;" parent="1" vertex="1">
          <mxGeometry x="320" y="-600" width="80" height="20" as="geometry" />
        </mxCell>
        <mxCell id="ABt2acHJ1TTvE4cJWGHj-15" value="" style="endArrow=none;dashed=1;html=1;dashPattern=1 3;strokeWidth=2;rounded=0;fontSize=12;startSize=8;endSize=8;curved=1;" parent="1" target="ABt2acHJ1TTvE4cJWGHj-7" edge="1">
          <mxGeometry width="50" height="50" relative="1" as="geometry">
            <mxPoint x="240" y="-440" as="sourcePoint" />
            <mxPoint x="240" y="-760" as="targetPoint" />
          </mxGeometry>
        </mxCell>
        <mxCell id="ABt2acHJ1TTvE4cJWGHj-29" style="edgeStyle=orthogonalEdgeStyle;curved=1;rounded=0;orthogonalLoop=1;jettySize=auto;html=1;entryX=0.5;entryY=0;entryDx=0;entryDy=0;fontSize=12;startSize=8;endSize=8;" parent="1" source="ABt2acHJ1TTvE4cJWGHj-7" target="ABt2acHJ1TTvE4cJWGHj-24" edge="1">
          <mxGeometry relative="1" as="geometry">
            <Array as="points">
              <mxPoint x="450" y="-610" />
              <mxPoint x="450" y="-540" />
              <mxPoint x="660" y="-540" />
            </Array>
          </mxGeometry>
        </mxCell>
        <mxCell id="ABt2acHJ1TTvE4cJWGHj-47" style="edgeStyle=none;curved=1;rounded=0;orthogonalLoop=1;jettySize=auto;html=1;entryX=0.5;entryY=0;entryDx=0;entryDy=0;fontSize=12;startSize=8;endSize=8;" parent="1" source="ABt2acHJ1TTvE4cJWGHj-7" target="ABt2acHJ1TTvE4cJWGHj-9" edge="1">
          <mxGeometry relative="1" as="geometry" />
        </mxCell>
        <mxCell id="ABt2acHJ1TTvE4cJWGHj-7" value="Create-C" style="ellipse;whiteSpace=wrap;html=1;fontSize=6;align=center;" parent="1" vertex="1">
          <mxGeometry x="200" y="-620" width="80" height="20" as="geometry" />
        </mxCell>
        <mxCell id="ABt2acHJ1TTvE4cJWGHj-9" value="Merge-C" style="ellipse;whiteSpace=wrap;html=1;fontSize=6;align=center;" parent="1" vertex="1">
          <mxGeometry x="200" y="-480" width="80" height="20" as="geometry" />
        </mxCell>
        <mxCell id="ABt2acHJ1TTvE4cJWGHj-42" style="edgeStyle=none;curved=1;rounded=0;orthogonalLoop=1;jettySize=auto;html=1;fontSize=12;startSize=8;endSize=8;" parent="1" source="ABt2acHJ1TTvE4cJWGHj-16" target="ABt2acHJ1TTvE4cJWGHj-17" edge="1">
          <mxGeometry relative="1" as="geometry" />
        </mxCell>
        <mxCell id="ABt2acHJ1TTvE4cJWGHj-16" value="Close-PR" style="ellipse;whiteSpace=wrap;html=1;fontSize=6;align=center;" parent="1" vertex="1">
          <mxGeometry x="320" y="-460" width="80" height="20" as="geometry" />
        </mxCell>
        <mxCell id="ABt2acHJ1TTvE4cJWGHj-17" value="Re-Open-PR" style="ellipse;whiteSpace=wrap;html=1;fontSize=6;align=center;" parent="1" vertex="1">
          <mxGeometry x="320" y="-424" width="80" height="20" as="geometry" />
        </mxCell>
        <mxCell id="ABt2acHJ1TTvE4cJWGHj-39" style="edgeStyle=none;curved=1;rounded=0;orthogonalLoop=1;jettySize=auto;html=1;entryX=0.5;entryY=0;entryDx=0;entryDy=0;fontSize=12;startSize=8;endSize=8;" parent="1" source="ABt2acHJ1TTvE4cJWGHj-18" target="ABt2acHJ1TTvE4cJWGHj-19" edge="1">
          <mxGeometry relative="1" as="geometry" />
        </mxCell>
        <mxCell id="ABt2acHJ1TTvE4cJWGHj-18" value="Request-R" style="ellipse;whiteSpace=wrap;html=1;fontSize=6;align=center;" parent="1" vertex="1">
          <mxGeometry x="560" y="-740" width="80" height="20" as="geometry" />
        </mxCell>
        <mxCell id="ABt2acHJ1TTvE4cJWGHj-19" value="Remove-Request-R" style="ellipse;whiteSpace=wrap;html=1;fontSize=6;align=center;" parent="1" vertex="1">
          <mxGeometry x="520" y="-700" width="80" height="20" as="geometry" />
        </mxCell>
        <mxCell id="ABt2acHJ1TTvE4cJWGHj-22" value="Request-Changes" style="ellipse;whiteSpace=wrap;html=1;fontSize=6;align=center;" parent="1" vertex="1">
          <mxGeometry x="560" y="-610" width="80" height="20" as="geometry" />
        </mxCell>
        <mxCell id="ABt2acHJ1TTvE4cJWGHj-23" value="Comment-R" style="ellipse;whiteSpace=wrap;html=1;fontSize=6;align=center;" parent="1" vertex="1">
          <mxGeometry x="560" y="-580" width="80" height="20" as="geometry" />
        </mxCell>
        <mxCell id="ABt2acHJ1TTvE4cJWGHj-30" style="edgeStyle=orthogonalEdgeStyle;curved=1;rounded=0;orthogonalLoop=1;jettySize=auto;html=1;entryX=0.5;entryY=0;entryDx=0;entryDy=0;fontSize=12;startSize=8;endSize=8;exitX=0.5;exitY=1;exitDx=0;exitDy=0;" parent="1" source="ABt2acHJ1TTvE4cJWGHj-24" target="ABt2acHJ1TTvE4cJWGHj-9" edge="1">
          <mxGeometry relative="1" as="geometry">
            <Array as="points">
              <mxPoint x="660" y="-480" />
              <mxPoint x="310" y="-480" />
              <mxPoint x="310" y="-510" />
              <mxPoint x="240" y="-510" />
            </Array>
          </mxGeometry>
        </mxCell>
        <mxCell id="ABt2acHJ1TTvE4cJWGHj-24" value="Approve-R" style="ellipse;whiteSpace=wrap;html=1;fontSize=6;align=center;" parent="1" vertex="1">
          <mxGeometry x="620" y="-520" width="80" height="20" as="geometry" />
        </mxCell>
        <mxCell id="ABt2acHJ1TTvE4cJWGHj-25" value="Dismiss-R" style="ellipse;whiteSpace=wrap;html=1;fontSize=6;align=center;" parent="1" vertex="1">
          <mxGeometry x="505" y="-520" width="80" height="20" as="geometry" />
        </mxCell>
        <mxCell id="ABt2acHJ1TTvE4cJWGHj-26" value="&lt;div&gt;&lt;font&gt;Create PR Object with state open&lt;/font&gt;&lt;/div&gt;" style="shape=note;whiteSpace=wrap;html=1;backgroundOutline=1;darkOpacity=0.05;size=5;fillColor=#fff2cc;strokeColor=#d6b656;fontSize=4;" parent="1" vertex="1">
          <mxGeometry x="410" y="-750" width="60" height="20" as="geometry" />
        </mxCell>
        <mxCell id="ABt2acHJ1TTvE4cJWGHj-27" style="edgeStyle=none;curved=1;rounded=0;orthogonalLoop=1;jettySize=auto;html=1;entryX=0.004;entryY=0.486;entryDx=0;entryDy=0;entryPerimeter=0;fontSize=12;endArrow=none;startFill=0;dashed=1;" parent="1" source="ABt2acHJ1TTvE4cJWGHj-6" target="ABt2acHJ1TTvE4cJWGHj-26" edge="1">
          <mxGeometry relative="1" as="geometry" />
        </mxCell>
        <mxCell id="ABt2acHJ1TTvE4cJWGHj-31" style="edgeStyle=orthogonalEdgeStyle;curved=1;rounded=0;orthogonalLoop=1;jettySize=auto;html=1;entryX=0.5;entryY=0;entryDx=0;entryDy=0;fontSize=12;startSize=8;endSize=8;" parent="1" source="ABt2acHJ1TTvE4cJWGHj-9" target="ABt2acHJ1TTvE4cJWGHj-16" edge="1">
          <mxGeometry relative="1" as="geometry" />
        </mxCell>
        <mxCell id="ABt2acHJ1TTvE4cJWGHj-34" style="edgeStyle=none;curved=1;rounded=0;orthogonalLoop=1;jettySize=auto;html=1;entryX=0.554;entryY=0.05;entryDx=0;entryDy=0;entryPerimeter=0;fontSize=12;startSize=8;endSize=8;" parent="1" source="ABt2acHJ1TTvE4cJWGHj-6" target="ABt2acHJ1TTvE4cJWGHj-10" edge="1">
          <mxGeometry relative="1" as="geometry" />
        </mxCell>
        <mxCell id="ABt2acHJ1TTvE4cJWGHj-35" style="edgeStyle=none;curved=1;rounded=0;orthogonalLoop=1;jettySize=auto;html=1;entryX=0.404;entryY=0.017;entryDx=0;entryDy=0;entryPerimeter=0;fontSize=12;startSize=8;endSize=8;" parent="1" source="ABt2acHJ1TTvE4cJWGHj-6" target="ABt2acHJ1TTvE4cJWGHj-12" edge="1">
          <mxGeometry relative="1" as="geometry" />
        </mxCell>
        <mxCell id="ABt2acHJ1TTvE4cJWGHj-40" style="edgeStyle=none;curved=1;rounded=0;orthogonalLoop=1;jettySize=auto;html=1;entryX=0.624;entryY=0.003;entryDx=0;entryDy=0;entryPerimeter=0;fontSize=12;startSize=8;endSize=8;" parent="1" source="ABt2acHJ1TTvE4cJWGHj-18" target="ABt2acHJ1TTvE4cJWGHj-38" edge="1">
          <mxGeometry relative="1" as="geometry" />
        </mxCell>
        <mxCell id="ABt2acHJ1TTvE4cJWGHj-41" style="edgeStyle=none;curved=1;rounded=0;orthogonalLoop=1;jettySize=auto;html=1;entryX=0.929;entryY=0.283;entryDx=0;entryDy=0;entryPerimeter=0;fontSize=12;startSize=8;endSize=8;" parent="1" source="ABt2acHJ1TTvE4cJWGHj-25" target="ABt2acHJ1TTvE4cJWGHj-16" edge="1">
          <mxGeometry relative="1" as="geometry" />
        </mxCell>
        <mxCell id="ABt2acHJ1TTvE4cJWGHj-43" style="edgeStyle=none;curved=1;rounded=0;orthogonalLoop=1;jettySize=auto;html=1;entryX=0.892;entryY=0.005;entryDx=0;entryDy=0;entryPerimeter=0;fontSize=12;startSize=8;endSize=8;" parent="1" source="ABt2acHJ1TTvE4cJWGHj-23" target="ABt2acHJ1TTvE4cJWGHj-38" edge="1">
          <mxGeometry relative="1" as="geometry" />
        </mxCell>
        <mxCell id="ABt2acHJ1TTvE4cJWGHj-44" style="edgeStyle=none;curved=1;rounded=0;orthogonalLoop=1;jettySize=auto;html=1;entryX=0.814;entryY=0.008;entryDx=0;entryDy=0;entryPerimeter=0;fontSize=12;startSize=8;endSize=8;" parent="1" source="ABt2acHJ1TTvE4cJWGHj-22" target="ABt2acHJ1TTvE4cJWGHj-38" edge="1">
          <mxGeometry relative="1" as="geometry" />
        </mxCell>
        <mxCell id="ABt2acHJ1TTvE4cJWGHj-45" style="edgeStyle=none;curved=1;rounded=0;orthogonalLoop=1;jettySize=auto;html=1;entryX=0.529;entryY=0.017;entryDx=0;entryDy=0;entryPerimeter=0;fontSize=12;startSize=8;endSize=8;" parent="1" source="ABt2acHJ1TTvE4cJWGHj-7" target="ABt2acHJ1TTvE4cJWGHj-8" edge="1">
          <mxGeometry relative="1" as="geometry" />
        </mxCell>
        <mxCell id="ABt2acHJ1TTvE4cJWGHj-46" style="edgeStyle=none;curved=1;rounded=0;orthogonalLoop=1;jettySize=auto;html=1;entryX=0.5;entryY=1;entryDx=0;entryDy=0;fontSize=12;startSize=8;endSize=8;" parent="1" source="ABt2acHJ1TTvE4cJWGHj-8" target="ABt2acHJ1TTvE4cJWGHj-7" edge="1">
          <mxGeometry relative="1" as="geometry" />
        </mxCell>
        <mxCell id="ABt2acHJ1TTvE4cJWGHj-48" style="edgeStyle=none;curved=1;rounded=0;orthogonalLoop=1;jettySize=auto;html=1;entryX=0.883;entryY=0.233;entryDx=0;entryDy=0;entryPerimeter=0;fontSize=12;startSize=8;endSize=8;" parent="1" source="ABt2acHJ1TTvE4cJWGHj-11" target="ABt2acHJ1TTvE4cJWGHj-7" edge="1">
          <mxGeometry relative="1" as="geometry" />
        </mxCell>
        <mxCell id="ABt2acHJ1TTvE4cJWGHj-50" style="edgeStyle=none;curved=1;rounded=0;orthogonalLoop=1;jettySize=auto;html=1;entryX=0.821;entryY=0.167;entryDx=0;entryDy=0;entryPerimeter=0;fontSize=12;startSize=8;endSize=8;" parent="1" source="ABt2acHJ1TTvE4cJWGHj-13" target="ABt2acHJ1TTvE4cJWGHj-14" edge="1">
          <mxGeometry relative="1" as="geometry" />
        </mxCell>
        <mxCell id="ABt2acHJ1TTvE4cJWGHj-51" style="edgeStyle=none;curved=1;rounded=0;orthogonalLoop=1;jettySize=auto;html=1;entryX=0.113;entryY=0.267;entryDx=0;entryDy=0;entryPerimeter=0;fontSize=12;startSize=8;endSize=8;" parent="1" source="ABt2acHJ1TTvE4cJWGHj-11" target="ABt2acHJ1TTvE4cJWGHj-14" edge="1">
          <mxGeometry relative="1" as="geometry" />
        </mxCell>
        <mxCell id="ABt2acHJ1TTvE4cJWGHj-52" style="edgeStyle=orthogonalEdgeStyle;curved=1;rounded=0;orthogonalLoop=1;jettySize=auto;html=1;entryX=0.025;entryY=0.683;entryDx=0;entryDy=0;entryPerimeter=0;fontSize=12;startSize=8;endSize=8;" parent="1" target="ABt2acHJ1TTvE4cJWGHj-18" edge="1">
          <mxGeometry relative="1" as="geometry">
            <mxPoint x="240" y="-600" as="sourcePoint" />
            <Array as="points">
              <mxPoint x="240" y="-570" />
              <mxPoint x="470" y="-570" />
              <mxPoint x="470" y="-726" />
            </Array>
          </mxGeometry>
        </mxCell>
        <mxCell id="JkBWv1rKW-V9Nhk1DFJg-19" style="edgeStyle=none;curved=1;rounded=0;orthogonalLoop=1;jettySize=auto;html=1;entryX=0.5;entryY=0;entryDx=0;entryDy=0;fontSize=12;startSize=8;endSize=8;" edge="1" parent="1" source="JkBWv1rKW-V9Nhk1DFJg-1" target="JkBWv1rKW-V9Nhk1DFJg-3">
          <mxGeometry relative="1" as="geometry" />
        </mxCell>
        <mxCell id="JkBWv1rKW-V9Nhk1DFJg-1" value="Open-PR" style="ellipse;whiteSpace=wrap;html=1;fontSize=6;align=center;" vertex="1" parent="1">
          <mxGeometry x="320" y="-320" width="80" height="20" as="geometry" />
        </mxCell>
        <mxCell id="JkBWv1rKW-V9Nhk1DFJg-18" style="edgeStyle=none;curved=1;rounded=0;orthogonalLoop=1;jettySize=auto;html=1;entryX=0.5;entryY=0;entryDx=0;entryDy=0;fontSize=12;startSize=8;endSize=8;" edge="1" parent="1" source="JkBWv1rKW-V9Nhk1DFJg-2" target="JkBWv1rKW-V9Nhk1DFJg-1">
          <mxGeometry relative="1" as="geometry" />
        </mxCell>
        <mxCell id="JkBWv1rKW-V9Nhk1DFJg-28" style="edgeStyle=orthogonalEdgeStyle;curved=1;rounded=0;orthogonalLoop=1;jettySize=auto;html=1;entryX=0;entryY=0;entryDx=0;entryDy=0;fontSize=12;startSize=8;endSize=8;exitX=0.5;exitY=0;exitDx=0;exitDy=0;" edge="1" parent="1" source="JkBWv1rKW-V9Nhk1DFJg-2" target="JkBWv1rKW-V9Nhk1DFJg-4">
          <mxGeometry relative="1" as="geometry">
            <Array as="points">
              <mxPoint x="360" y="-370" />
              <mxPoint x="280" y="-370" />
              <mxPoint x="280" y="-257" />
            </Array>
          </mxGeometry>
        </mxCell>
        <mxCell id="JkBWv1rKW-V9Nhk1DFJg-29" style="edgeStyle=none;curved=1;rounded=0;orthogonalLoop=1;jettySize=auto;html=1;fontSize=12;startSize=8;endSize=8;strokeColor=light-dark(#919191, #ededed);" edge="1" parent="1" source="JkBWv1rKW-V9Nhk1DFJg-2">
          <mxGeometry relative="1" as="geometry">
            <mxPoint x="520" y="-370" as="targetPoint" />
          </mxGeometry>
        </mxCell>
        <mxCell id="JkBWv1rKW-V9Nhk1DFJg-2" value="Commit" style="ellipse;whiteSpace=wrap;html=1;fontSize=6;align=center;" vertex="1" parent="1">
          <mxGeometry x="320" y="-350" width="80" height="20" as="geometry" />
        </mxCell>
        <mxCell id="JkBWv1rKW-V9Nhk1DFJg-5" value="" style="edgeStyle=none;curved=1;rounded=0;orthogonalLoop=1;jettySize=auto;html=1;fontSize=12;startSize=8;endSize=8;" edge="1" parent="1" source="JkBWv1rKW-V9Nhk1DFJg-3" target="JkBWv1rKW-V9Nhk1DFJg-4">
          <mxGeometry relative="1" as="geometry" />
        </mxCell>
        <mxCell id="JkBWv1rKW-V9Nhk1DFJg-3" value="Comment-PR" style="ellipse;whiteSpace=wrap;html=1;fontSize=6;align=center;" vertex="1" parent="1">
          <mxGeometry x="320" y="-290" width="80" height="20" as="geometry" />
        </mxCell>
        <mxCell id="JkBWv1rKW-V9Nhk1DFJg-8" value="" style="edgeStyle=none;curved=1;rounded=0;orthogonalLoop=1;jettySize=auto;html=1;fontSize=12;startSize=8;endSize=8;" edge="1" parent="1" source="JkBWv1rKW-V9Nhk1DFJg-4" target="JkBWv1rKW-V9Nhk1DFJg-7">
          <mxGeometry relative="1" as="geometry" />
        </mxCell>
        <mxCell id="JkBWv1rKW-V9Nhk1DFJg-21" value="" style="edgeStyle=orthogonalEdgeStyle;curved=1;rounded=0;orthogonalLoop=1;jettySize=auto;html=1;fontSize=12;startSize=8;endSize=8;" edge="1" parent="1" source="JkBWv1rKW-V9Nhk1DFJg-4" target="JkBWv1rKW-V9Nhk1DFJg-20">
          <mxGeometry relative="1" as="geometry" />
        </mxCell>
        <mxCell id="JkBWv1rKW-V9Nhk1DFJg-4" value="Review-Request" style="ellipse;whiteSpace=wrap;html=1;fontSize=6;align=center;" vertex="1" parent="1">
          <mxGeometry x="320" y="-260" width="80" height="20" as="geometry" />
        </mxCell>
        <mxCell id="JkBWv1rKW-V9Nhk1DFJg-10" value="" style="edgeStyle=none;curved=1;rounded=0;orthogonalLoop=1;jettySize=auto;html=1;fontSize=12;startSize=8;endSize=8;" edge="1" parent="1" source="JkBWv1rKW-V9Nhk1DFJg-7" target="JkBWv1rKW-V9Nhk1DFJg-9">
          <mxGeometry relative="1" as="geometry" />
        </mxCell>
        <mxCell id="JkBWv1rKW-V9Nhk1DFJg-7" value="Comment-Review" style="ellipse;whiteSpace=wrap;html=1;fontSize=6;align=center;" vertex="1" parent="1">
          <mxGeometry x="320" y="-230" width="80" height="20" as="geometry" />
        </mxCell>
        <mxCell id="JkBWv1rKW-V9Nhk1DFJg-11" style="edgeStyle=orthogonalEdgeStyle;curved=1;rounded=0;orthogonalLoop=1;jettySize=auto;html=1;entryX=1;entryY=0.5;entryDx=0;entryDy=0;fontSize=12;startSize=8;endSize=8;exitX=1;exitY=0.5;exitDx=0;exitDy=0;" edge="1" parent="1" source="JkBWv1rKW-V9Nhk1DFJg-9" target="JkBWv1rKW-V9Nhk1DFJg-4">
          <mxGeometry relative="1" as="geometry" />
        </mxCell>
        <mxCell id="JkBWv1rKW-V9Nhk1DFJg-13" value="" style="edgeStyle=none;curved=1;rounded=0;orthogonalLoop=1;jettySize=auto;html=1;fontSize=12;startSize=8;endSize=8;" edge="1" parent="1" source="JkBWv1rKW-V9Nhk1DFJg-9" target="JkBWv1rKW-V9Nhk1DFJg-12">
          <mxGeometry relative="1" as="geometry" />
        </mxCell>
        <mxCell id="JkBWv1rKW-V9Nhk1DFJg-9" value="Commit" style="ellipse;whiteSpace=wrap;html=1;fontSize=6;align=center;" vertex="1" parent="1">
          <mxGeometry x="320" y="-200" width="80" height="20" as="geometry" />
        </mxCell>
        <mxCell id="JkBWv1rKW-V9Nhk1DFJg-15" value="" style="edgeStyle=none;curved=1;rounded=0;orthogonalLoop=1;jettySize=auto;html=1;fontSize=12;startSize=8;endSize=8;" edge="1" parent="1" source="JkBWv1rKW-V9Nhk1DFJg-12" target="JkBWv1rKW-V9Nhk1DFJg-14">
          <mxGeometry relative="1" as="geometry" />
        </mxCell>
        <mxCell id="JkBWv1rKW-V9Nhk1DFJg-12" value="Approve-Review" style="ellipse;whiteSpace=wrap;html=1;fontSize=6;align=center;" vertex="1" parent="1">
          <mxGeometry x="320" y="-170" width="80" height="20" as="geometry" />
        </mxCell>
        <mxCell id="JkBWv1rKW-V9Nhk1DFJg-17" value="" style="edgeStyle=none;curved=1;rounded=0;orthogonalLoop=1;jettySize=auto;html=1;fontSize=12;startSize=8;endSize=8;" edge="1" parent="1" source="JkBWv1rKW-V9Nhk1DFJg-14" target="JkBWv1rKW-V9Nhk1DFJg-16">
          <mxGeometry relative="1" as="geometry" />
        </mxCell>
        <mxCell id="JkBWv1rKW-V9Nhk1DFJg-14" value="Merge-PR" style="ellipse;whiteSpace=wrap;html=1;fontSize=6;align=center;" vertex="1" parent="1">
          <mxGeometry x="320" y="-140" width="80" height="20" as="geometry" />
        </mxCell>
        <mxCell id="JkBWv1rKW-V9Nhk1DFJg-24" value="" style="edgeStyle=orthogonalEdgeStyle;curved=1;rounded=0;orthogonalLoop=1;jettySize=auto;html=1;fontSize=12;startSize=8;endSize=8;entryX=0;entryY=0.5;entryDx=0;entryDy=0;" edge="1" parent="1" source="JkBWv1rKW-V9Nhk1DFJg-16" target="JkBWv1rKW-V9Nhk1DFJg-23">
          <mxGeometry relative="1" as="geometry" />
        </mxCell>
        <mxCell id="JkBWv1rKW-V9Nhk1DFJg-16" value="Close-PR" style="ellipse;whiteSpace=wrap;html=1;fontSize=6;align=center;" vertex="1" parent="1">
          <mxGeometry x="320" y="-110" width="80" height="20" as="geometry" />
        </mxCell>
        <mxCell id="JkBWv1rKW-V9Nhk1DFJg-22" style="edgeStyle=orthogonalEdgeStyle;curved=1;rounded=0;orthogonalLoop=1;jettySize=auto;html=1;entryX=0;entryY=0.5;entryDx=0;entryDy=0;fontSize=12;startSize=8;endSize=8;exitX=0.5;exitY=1;exitDx=0;exitDy=0;" edge="1" parent="1" source="JkBWv1rKW-V9Nhk1DFJg-20" target="JkBWv1rKW-V9Nhk1DFJg-16">
          <mxGeometry relative="1" as="geometry" />
        </mxCell>
        <mxCell id="JkBWv1rKW-V9Nhk1DFJg-20" value="Decline-Review" style="ellipse;whiteSpace=wrap;html=1;fontSize=6;align=center;" vertex="1" parent="1">
          <mxGeometry x="230" y="-170" width="80" height="20" as="geometry" />
        </mxCell>
        <mxCell id="JkBWv1rKW-V9Nhk1DFJg-26" style="edgeStyle=none;curved=1;rounded=0;orthogonalLoop=1;jettySize=auto;html=1;entryX=1;entryY=0.5;entryDx=0;entryDy=0;fontSize=12;startSize=8;endSize=8;" edge="1" parent="1" source="JkBWv1rKW-V9Nhk1DFJg-23" target="JkBWv1rKW-V9Nhk1DFJg-3">
          <mxGeometry relative="1" as="geometry" />
        </mxCell>
        <mxCell id="JkBWv1rKW-V9Nhk1DFJg-23" value="Re-Open-PR" style="ellipse;whiteSpace=wrap;html=1;fontSize=6;align=center;" vertex="1" parent="1">
          <mxGeometry x="450" y="-320" width="80" height="20" as="geometry" />
        </mxCell>
        <mxCell id="JkBWv1rKW-V9Nhk1DFJg-27" style="edgeStyle=orthogonalEdgeStyle;curved=1;rounded=0;orthogonalLoop=1;jettySize=auto;html=1;entryX=0;entryY=0.5;entryDx=0;entryDy=0;fontSize=12;startSize=8;endSize=8;exitX=0;exitY=0.5;exitDx=0;exitDy=0;" edge="1" parent="1" source="JkBWv1rKW-V9Nhk1DFJg-3" target="JkBWv1rKW-V9Nhk1DFJg-2">
          <mxGeometry relative="1" as="geometry" />
        </mxCell>
        <mxCell id="JkBWv1rKW-V9Nhk1DFJg-30" value="Commit" style="ellipse;whiteSpace=wrap;html=1;fontSize=6;align=center;strokeColor=light-dark(#919191, #ededed);" vertex="1" parent="1">
          <mxGeometry x="520" y="-380" width="80" height="20" as="geometry" />
        </mxCell>
      </root>
    </mxGraphModel>
  </diagram>
</mxfile>
